M48
; DRILL file {KiCad (6.0.11-0)} date Sunday, February 12, 2023 at 08:14:47 PM
; FORMAT={-:-/ absolute / inch / decimal}
; #@! TF.CreationDate,2023-02-12T20:14:47-08:00
; #@! TF.GenerationSoftware,Kicad,Pcbnew,(6.0.11-0)
; #@! TF.FileFunction,Plated,1,2,PTH
FMAT,2
INCH
; #@! TA.AperFunction,Plated,PTH,ViaDrill
T1C0.0157
; #@! TA.AperFunction,Plated,PTH,ComponentDrill
T2C0.0315
; #@! TA.AperFunction,Plated,PTH,ComponentDrill
T3C0.0394
%
G90
G05
T1
X5.27Y-3.485
X5.7535Y-3.9065
X5.755Y-4.18
X5.845Y-3.73
X6.175Y-4.285
X6.22Y-4.34
X6.45Y-3.85
X6.65Y-3.3
T2
X5.095Y-4.0793
X5.095Y-4.3793
X5.245Y-4.0793
X5.245Y-4.3793
X5.545Y-4.0793
X5.545Y-4.3793
X5.695Y-4.0793
X5.695Y-4.3793
X6.1293Y-2.3313
X6.1293Y-2.4313
X6.1293Y-2.5313
X6.1293Y-2.6313
X6.1293Y-2.7313
X6.1293Y-2.8313
X6.1293Y-2.9313
X6.1293Y-3.0313
X6.1293Y-3.1313
X6.1293Y-3.2313
X6.1293Y-3.3313
X6.1293Y-3.4313
X6.1293Y-3.5313
X6.1293Y-3.6313
X6.1293Y-3.7313
X6.1293Y-3.8313
X6.1293Y-3.9313
X6.1293Y-4.0313
X6.1293Y-4.1313
X6.1293Y-4.2313
X6.2293Y-2.3293
X6.2293Y-2.4293
X6.2293Y-2.5293
X6.2293Y-2.6293
X6.2293Y-2.7293
X6.2293Y-2.8293
X6.2293Y-2.9293
X6.2293Y-3.0293
X6.2293Y-3.1293
X6.2293Y-3.2293
X6.2293Y-3.3293
X6.2293Y-3.4293
X6.2293Y-3.5293
X6.2293Y-3.6293
X6.2293Y-3.7293
X6.2293Y-3.8293
X6.2293Y-3.9293
X6.2293Y-4.0293
X6.2293Y-4.1293
X6.2293Y-4.2293
X6.7293Y-2.3313
X6.7293Y-2.4313
X6.7293Y-2.5313
X6.7293Y-2.6313
X6.7293Y-2.7313
X6.7293Y-2.8313
X6.7293Y-2.9313
X6.7293Y-3.0313
X6.7293Y-3.1313
X6.7293Y-3.2313
X6.7293Y-3.3313
X6.7293Y-3.4313
X6.7293Y-3.5313
X6.7293Y-3.6313
X6.7293Y-3.7313
X6.7293Y-3.8313
X6.7293Y-3.9313
X6.7293Y-4.0313
X6.7293Y-4.1313
X6.7293Y-4.2313
X6.8293Y-2.3293
X6.8293Y-2.4293
X6.8293Y-2.5293
X6.8293Y-2.6293
X6.8293Y-2.7293
X6.8293Y-2.8293
X6.8293Y-2.9293
X6.8293Y-3.0293
X6.8293Y-3.1293
X6.8293Y-3.2293
X6.8293Y-3.3293
X6.8293Y-3.4293
X6.8293Y-3.5293
X6.8293Y-3.6293
X6.8293Y-3.7293
X6.8293Y-3.8293
X6.8293Y-3.9293
X6.8293Y-4.0293
X6.8293Y-4.1293
X6.8293Y-4.2293
T3
X5.12Y-2.8297
X5.12Y-2.9297
X5.12Y-3.0297
X5.12Y-3.1297
X5.12Y-3.2297
X5.12Y-3.3297
X5.12Y-3.4297
X5.12Y-3.5297
X5.12Y-3.6297
X5.17Y-3.8604
X5.27Y-3.8604
X5.37Y-3.8604
X5.47Y-3.8604
X5.57Y-3.8604
X5.67Y-3.8604
X5.72Y-2.8293
X5.72Y-2.9293
X5.72Y-3.0293
X5.72Y-3.1293
X5.72Y-3.2293
X5.72Y-3.3293
X5.72Y-3.4293
X5.72Y-3.5293
X5.72Y-3.6293
X5.965Y-3.4293
X5.965Y-3.5293
X5.965Y-3.6293
X5.965Y-4.0293
X5.965Y-4.1293
X5.965Y-4.2293
T0
M30
