%TF.GenerationSoftware,KiCad,Pcbnew,(6.0.11-0)*%
%TF.CreationDate,2023-02-12T20:14:34-08:00*%
%TF.ProjectId,nabu-ftdi-serial,6e616275-2d66-4746-9469-2d7365726961,1.0*%
%TF.SameCoordinates,Original*%
%TF.FileFunction,Legend,Top*%
%TF.FilePolarity,Positive*%
%FSLAX46Y46*%
G04 Gerber Fmt 4.6, Leading zero omitted, Abs format (unit mm)*
G04 Created by KiCad (PCBNEW (6.0.11-0)) date 2023-02-12 20:14:34*
%MOMM*%
%LPD*%
G01*
G04 APERTURE LIST*
%ADD10C,0.100000*%
%ADD11C,0.150000*%
%ADD12C,0.120000*%
G04 APERTURE END LIST*
D10*
X149849571Y-84903234D02*
X149849571Y-84153234D01*
X150028142Y-84153234D01*
X150135285Y-84188949D01*
X150206714Y-84260377D01*
X150242428Y-84331806D01*
X150278142Y-84474663D01*
X150278142Y-84581806D01*
X150242428Y-84724663D01*
X150206714Y-84796091D01*
X150135285Y-84867520D01*
X150028142Y-84903234D01*
X149849571Y-84903234D01*
X150599571Y-84903234D02*
X150599571Y-84403234D01*
X150599571Y-84153234D02*
X150563857Y-84188949D01*
X150599571Y-84224663D01*
X150635285Y-84188949D01*
X150599571Y-84153234D01*
X150599571Y-84224663D01*
X150921000Y-84867520D02*
X150992428Y-84903234D01*
X151135285Y-84903234D01*
X151206714Y-84867520D01*
X151242428Y-84796091D01*
X151242428Y-84760377D01*
X151206714Y-84688949D01*
X151135285Y-84653234D01*
X151028142Y-84653234D01*
X150956714Y-84617520D01*
X150921000Y-84546091D01*
X150921000Y-84510377D01*
X150956714Y-84438949D01*
X151028142Y-84403234D01*
X151135285Y-84403234D01*
X151206714Y-84438949D01*
X151885285Y-84903234D02*
X151885285Y-84510377D01*
X151849571Y-84438949D01*
X151778142Y-84403234D01*
X151635285Y-84403234D01*
X151563857Y-84438949D01*
X151885285Y-84867520D02*
X151813857Y-84903234D01*
X151635285Y-84903234D01*
X151563857Y-84867520D01*
X151528142Y-84796091D01*
X151528142Y-84724663D01*
X151563857Y-84653234D01*
X151635285Y-84617520D01*
X151813857Y-84617520D01*
X151885285Y-84581806D01*
X152242428Y-84903234D02*
X152242428Y-84153234D01*
X152242428Y-84438949D02*
X152313857Y-84403234D01*
X152456714Y-84403234D01*
X152528142Y-84438949D01*
X152563857Y-84474663D01*
X152599571Y-84546091D01*
X152599571Y-84760377D01*
X152563857Y-84831806D01*
X152528142Y-84867520D01*
X152456714Y-84903234D01*
X152313857Y-84903234D01*
X152242428Y-84867520D01*
X153028142Y-84903234D02*
X152956714Y-84867520D01*
X152921000Y-84796091D01*
X152921000Y-84153234D01*
X153599571Y-84867520D02*
X153528142Y-84903234D01*
X153385285Y-84903234D01*
X153313857Y-84867520D01*
X153278142Y-84796091D01*
X153278142Y-84510377D01*
X153313857Y-84438949D01*
X153385285Y-84403234D01*
X153528142Y-84403234D01*
X153599571Y-84438949D01*
X153635285Y-84510377D01*
X153635285Y-84581806D01*
X153278142Y-84653234D01*
X150369428Y-99889234D02*
X149940857Y-99889234D01*
X150155142Y-99889234D02*
X150155142Y-99139234D01*
X150083714Y-99246377D01*
X150012285Y-99317806D01*
X149940857Y-99353520D01*
X151083714Y-99889234D02*
X150655142Y-99889234D01*
X150869428Y-99889234D02*
X150869428Y-99139234D01*
X150798000Y-99246377D01*
X150726571Y-99317806D01*
X150655142Y-99353520D01*
X151762285Y-99139234D02*
X151405142Y-99139234D01*
X151369428Y-99496377D01*
X151405142Y-99460663D01*
X151476571Y-99424949D01*
X151655142Y-99424949D01*
X151726571Y-99460663D01*
X151762285Y-99496377D01*
X151798000Y-99567806D01*
X151798000Y-99746377D01*
X151762285Y-99817806D01*
X151726571Y-99853520D01*
X151655142Y-99889234D01*
X151476571Y-99889234D01*
X151405142Y-99853520D01*
X151369428Y-99817806D01*
X152119428Y-99817806D02*
X152155142Y-99853520D01*
X152119428Y-99889234D01*
X152083714Y-99853520D01*
X152119428Y-99817806D01*
X152119428Y-99889234D01*
X152440857Y-99210663D02*
X152476571Y-99174949D01*
X152548000Y-99139234D01*
X152726571Y-99139234D01*
X152798000Y-99174949D01*
X152833714Y-99210663D01*
X152869428Y-99282091D01*
X152869428Y-99353520D01*
X152833714Y-99460663D01*
X152405142Y-99889234D01*
X152869428Y-99889234D01*
X153190857Y-99889234D02*
X153190857Y-99139234D01*
X153619428Y-99889234D02*
X153298000Y-99460663D01*
X153619428Y-99139234D02*
X153190857Y-99567806D01*
X141360428Y-91791285D02*
X141789000Y-91791285D01*
X141574714Y-92541285D02*
X141574714Y-91791285D01*
X141967571Y-91791285D02*
X142467571Y-92541285D01*
X142467571Y-91791285D02*
X141967571Y-92541285D01*
X142753285Y-92541285D02*
X142753285Y-91791285D01*
X142931857Y-91791285D01*
X143039000Y-91827000D01*
X143110428Y-91898428D01*
X143146142Y-91969857D01*
X143181857Y-92112714D01*
X143181857Y-92219857D01*
X143146142Y-92362714D01*
X143110428Y-92434142D01*
X143039000Y-92505571D01*
X142931857Y-92541285D01*
X142753285Y-92541285D01*
X132752142Y-79769857D02*
X132716428Y-79805571D01*
X132609285Y-79841285D01*
X132537857Y-79841285D01*
X132430714Y-79805571D01*
X132359285Y-79734142D01*
X132323571Y-79662714D01*
X132287857Y-79519857D01*
X132287857Y-79412714D01*
X132323571Y-79269857D01*
X132359285Y-79198428D01*
X132430714Y-79127000D01*
X132537857Y-79091285D01*
X132609285Y-79091285D01*
X132716428Y-79127000D01*
X132752142Y-79162714D01*
X132966428Y-79091285D02*
X133395000Y-79091285D01*
X133180714Y-79841285D02*
X133180714Y-79091285D01*
X133609285Y-79805571D02*
X133716428Y-79841285D01*
X133895000Y-79841285D01*
X133966428Y-79805571D01*
X134002142Y-79769857D01*
X134037857Y-79698428D01*
X134037857Y-79627000D01*
X134002142Y-79555571D01*
X133966428Y-79519857D01*
X133895000Y-79484142D01*
X133752142Y-79448428D01*
X133680714Y-79412714D01*
X133645000Y-79377000D01*
X133609285Y-79305571D01*
X133609285Y-79234142D01*
X133645000Y-79162714D01*
X133680714Y-79127000D01*
X133752142Y-79091285D01*
X133930714Y-79091285D01*
X134037857Y-79127000D01*
X134185857Y-94771250D02*
X134543000Y-94771250D01*
X134114428Y-94985535D02*
X134364428Y-94235535D01*
X134614428Y-94985535D01*
X135185857Y-94985535D02*
X135185857Y-94235535D01*
X135185857Y-94949821D02*
X135114428Y-94985535D01*
X134971571Y-94985535D01*
X134900142Y-94949821D01*
X134864428Y-94914107D01*
X134828714Y-94842678D01*
X134828714Y-94628392D01*
X134864428Y-94556964D01*
X134900142Y-94521250D01*
X134971571Y-94485535D01*
X135114428Y-94485535D01*
X135185857Y-94521250D01*
X135864428Y-94985535D02*
X135864428Y-94592678D01*
X135828714Y-94521250D01*
X135757285Y-94485535D01*
X135614428Y-94485535D01*
X135543000Y-94521250D01*
X135864428Y-94949821D02*
X135793000Y-94985535D01*
X135614428Y-94985535D01*
X135543000Y-94949821D01*
X135507285Y-94878392D01*
X135507285Y-94806964D01*
X135543000Y-94735535D01*
X135614428Y-94699821D01*
X135793000Y-94699821D01*
X135864428Y-94664107D01*
X136114428Y-94485535D02*
X136400142Y-94485535D01*
X136221571Y-94985535D02*
X136221571Y-94342678D01*
X136257285Y-94271250D01*
X136328714Y-94235535D01*
X136400142Y-94235535D01*
X136650142Y-94985535D02*
X136650142Y-94485535D01*
X136650142Y-94628392D02*
X136685857Y-94556964D01*
X136721571Y-94521250D01*
X136793000Y-94485535D01*
X136864428Y-94485535D01*
X137435857Y-94485535D02*
X137435857Y-94985535D01*
X137114428Y-94485535D02*
X137114428Y-94878392D01*
X137150142Y-94949821D01*
X137221571Y-94985535D01*
X137328714Y-94985535D01*
X137400142Y-94949821D01*
X137435857Y-94914107D01*
X137793000Y-94985535D02*
X137793000Y-94485535D01*
X137793000Y-94235535D02*
X137757285Y-94271250D01*
X137793000Y-94306964D01*
X137828714Y-94271250D01*
X137793000Y-94235535D01*
X137793000Y-94306964D01*
X138043000Y-94485535D02*
X138328714Y-94485535D01*
X138150142Y-94235535D02*
X138150142Y-94878392D01*
X138185857Y-94949821D01*
X138257285Y-94985535D01*
X138328714Y-94985535D01*
X139400142Y-94592678D02*
X139150142Y-94592678D01*
X139150142Y-94985535D02*
X139150142Y-94235535D01*
X139507285Y-94235535D01*
X139685857Y-94235535D02*
X140114428Y-94235535D01*
X139900142Y-94985535D02*
X139900142Y-94235535D01*
X140364428Y-94985535D02*
X140364428Y-94235535D01*
X140543000Y-94235535D01*
X140650142Y-94271250D01*
X140721571Y-94342678D01*
X140757285Y-94414107D01*
X140793000Y-94556964D01*
X140793000Y-94664107D01*
X140757285Y-94806964D01*
X140721571Y-94878392D01*
X140650142Y-94949821D01*
X140543000Y-94985535D01*
X140364428Y-94985535D01*
X141114428Y-94985535D02*
X141114428Y-94235535D01*
X135453714Y-96121607D02*
X135418000Y-96157321D01*
X135310857Y-96193035D01*
X135239428Y-96193035D01*
X135132285Y-96157321D01*
X135060857Y-96085892D01*
X135025142Y-96014464D01*
X134989428Y-95871607D01*
X134989428Y-95764464D01*
X135025142Y-95621607D01*
X135060857Y-95550178D01*
X135132285Y-95478750D01*
X135239428Y-95443035D01*
X135310857Y-95443035D01*
X135418000Y-95478750D01*
X135453714Y-95514464D01*
X135882285Y-96193035D02*
X135810857Y-96157321D01*
X135775142Y-96121607D01*
X135739428Y-96050178D01*
X135739428Y-95835892D01*
X135775142Y-95764464D01*
X135810857Y-95728750D01*
X135882285Y-95693035D01*
X135989428Y-95693035D01*
X136060857Y-95728750D01*
X136096571Y-95764464D01*
X136132285Y-95835892D01*
X136132285Y-96050178D01*
X136096571Y-96121607D01*
X136060857Y-96157321D01*
X135989428Y-96193035D01*
X135882285Y-96193035D01*
X136453714Y-95693035D02*
X136453714Y-96193035D01*
X136453714Y-95764464D02*
X136489428Y-95728750D01*
X136560857Y-95693035D01*
X136668000Y-95693035D01*
X136739428Y-95728750D01*
X136775142Y-95800178D01*
X136775142Y-96193035D01*
X137132285Y-95693035D02*
X137132285Y-96193035D01*
X137132285Y-95764464D02*
X137168000Y-95728750D01*
X137239428Y-95693035D01*
X137346571Y-95693035D01*
X137418000Y-95728750D01*
X137453714Y-95800178D01*
X137453714Y-96193035D01*
X138096571Y-96157321D02*
X138025142Y-96193035D01*
X137882285Y-96193035D01*
X137810857Y-96157321D01*
X137775142Y-96085892D01*
X137775142Y-95800178D01*
X137810857Y-95728750D01*
X137882285Y-95693035D01*
X138025142Y-95693035D01*
X138096571Y-95728750D01*
X138132285Y-95800178D01*
X138132285Y-95871607D01*
X137775142Y-95943035D01*
X138775142Y-96157321D02*
X138703714Y-96193035D01*
X138560857Y-96193035D01*
X138489428Y-96157321D01*
X138453714Y-96121607D01*
X138418000Y-96050178D01*
X138418000Y-95835892D01*
X138453714Y-95764464D01*
X138489428Y-95728750D01*
X138560857Y-95693035D01*
X138703714Y-95693035D01*
X138775142Y-95728750D01*
X138989428Y-95693035D02*
X139275142Y-95693035D01*
X139096571Y-95443035D02*
X139096571Y-96085892D01*
X139132285Y-96157321D01*
X139203714Y-96193035D01*
X139275142Y-96193035D01*
X139632285Y-96193035D02*
X139560857Y-96157321D01*
X139525142Y-96121607D01*
X139489428Y-96050178D01*
X139489428Y-95835892D01*
X139525142Y-95764464D01*
X139560857Y-95728750D01*
X139632285Y-95693035D01*
X139739428Y-95693035D01*
X139810857Y-95728750D01*
X139846571Y-95764464D01*
X139882285Y-95835892D01*
X139882285Y-96050178D01*
X139846571Y-96121607D01*
X139810857Y-96157321D01*
X139739428Y-96193035D01*
X139632285Y-96193035D01*
X140203714Y-96193035D02*
X140203714Y-95693035D01*
X140203714Y-95835892D02*
X140239428Y-95764464D01*
X140275142Y-95728750D01*
X140346571Y-95693035D01*
X140418000Y-95693035D01*
D11*
X137834666Y-90343428D02*
X137834666Y-89867238D01*
X138120380Y-90438666D02*
X137120380Y-90105333D01*
X138120380Y-89772000D01*
X138120380Y-89295809D02*
X138072761Y-89391047D01*
X137977523Y-89438666D01*
X137120380Y-89438666D01*
X138120380Y-88914857D02*
X137453714Y-88914857D01*
X137120380Y-88914857D02*
X137168000Y-88962476D01*
X137215619Y-88914857D01*
X137168000Y-88867238D01*
X137120380Y-88914857D01*
X137215619Y-88914857D01*
X137596571Y-87676761D02*
X137596571Y-87343428D01*
X138120380Y-87200571D02*
X138120380Y-87676761D01*
X137120380Y-87676761D01*
X137120380Y-87200571D01*
X138120380Y-86867238D02*
X137453714Y-86343428D01*
X137453714Y-86867238D02*
X138120380Y-86343428D01*
X137453714Y-85962476D02*
X138453714Y-85962476D01*
X137501333Y-85962476D02*
X137453714Y-85867238D01*
X137453714Y-85676761D01*
X137501333Y-85581523D01*
X137548952Y-85533904D01*
X137644190Y-85486285D01*
X137929904Y-85486285D01*
X138025142Y-85533904D01*
X138072761Y-85581523D01*
X138120380Y-85676761D01*
X138120380Y-85867238D01*
X138072761Y-85962476D01*
X138120380Y-85057714D02*
X137453714Y-85057714D01*
X137644190Y-85057714D02*
X137548952Y-85010095D01*
X137501333Y-84962476D01*
X137453714Y-84867238D01*
X137453714Y-84772000D01*
X138072761Y-84057714D02*
X138120380Y-84152952D01*
X138120380Y-84343428D01*
X138072761Y-84438666D01*
X137977523Y-84486285D01*
X137596571Y-84486285D01*
X137501333Y-84438666D01*
X137453714Y-84343428D01*
X137453714Y-84152952D01*
X137501333Y-84057714D01*
X137596571Y-84010095D01*
X137691809Y-84010095D01*
X137787047Y-84486285D01*
X138072761Y-83629142D02*
X138120380Y-83533904D01*
X138120380Y-83343428D01*
X138072761Y-83248190D01*
X137977523Y-83200571D01*
X137929904Y-83200571D01*
X137834666Y-83248190D01*
X137787047Y-83343428D01*
X137787047Y-83486285D01*
X137739428Y-83581523D01*
X137644190Y-83629142D01*
X137596571Y-83629142D01*
X137501333Y-83581523D01*
X137453714Y-83486285D01*
X137453714Y-83343428D01*
X137501333Y-83248190D01*
X138072761Y-82819619D02*
X138120380Y-82724380D01*
X138120380Y-82533904D01*
X138072761Y-82438666D01*
X137977523Y-82391047D01*
X137929904Y-82391047D01*
X137834666Y-82438666D01*
X137787047Y-82533904D01*
X137787047Y-82676761D01*
X137739428Y-82772000D01*
X137644190Y-82819619D01*
X137596571Y-82819619D01*
X137501333Y-82772000D01*
X137453714Y-82676761D01*
X137453714Y-82533904D01*
X137501333Y-82438666D01*
X137596571Y-80867238D02*
X137596571Y-81200571D01*
X138120380Y-81200571D02*
X137120380Y-81200571D01*
X137120380Y-80724380D01*
X137120380Y-80486285D02*
X137120380Y-79914857D01*
X138120380Y-80200571D02*
X137120380Y-80200571D01*
X138120380Y-79581523D02*
X137120380Y-79581523D01*
X137120380Y-79343428D01*
X137168000Y-79200571D01*
X137263238Y-79105333D01*
X137358476Y-79057714D01*
X137548952Y-79010095D01*
X137691809Y-79010095D01*
X137882285Y-79057714D01*
X137977523Y-79105333D01*
X138072761Y-79200571D01*
X138120380Y-79343428D01*
X138120380Y-79581523D01*
X138120380Y-78581523D02*
X137120380Y-78581523D01*
X137596571Y-77010095D02*
X137644190Y-76867238D01*
X137691809Y-76819619D01*
X137787047Y-76772000D01*
X137929904Y-76772000D01*
X138025142Y-76819619D01*
X138072761Y-76867238D01*
X138120380Y-76962476D01*
X138120380Y-77343428D01*
X137120380Y-77343428D01*
X137120380Y-77010095D01*
X137168000Y-76914857D01*
X137215619Y-76867238D01*
X137310857Y-76819619D01*
X137406095Y-76819619D01*
X137501333Y-76867238D01*
X137548952Y-76914857D01*
X137596571Y-77010095D01*
X137596571Y-77343428D01*
X138120380Y-76343428D02*
X137453714Y-76343428D01*
X137644190Y-76343428D02*
X137548952Y-76295809D01*
X137501333Y-76248190D01*
X137453714Y-76152952D01*
X137453714Y-76057714D01*
X138072761Y-75343428D02*
X138120380Y-75438666D01*
X138120380Y-75629142D01*
X138072761Y-75724380D01*
X137977523Y-75772000D01*
X137596571Y-75772000D01*
X137501333Y-75724380D01*
X137453714Y-75629142D01*
X137453714Y-75438666D01*
X137501333Y-75343428D01*
X137596571Y-75295809D01*
X137691809Y-75295809D01*
X137787047Y-75772000D01*
X138120380Y-74438666D02*
X137596571Y-74438666D01*
X137501333Y-74486285D01*
X137453714Y-74581523D01*
X137453714Y-74772000D01*
X137501333Y-74867238D01*
X138072761Y-74438666D02*
X138120380Y-74533904D01*
X138120380Y-74772000D01*
X138072761Y-74867238D01*
X137977523Y-74914857D01*
X137882285Y-74914857D01*
X137787047Y-74867238D01*
X137739428Y-74772000D01*
X137739428Y-74533904D01*
X137691809Y-74438666D01*
X138120380Y-73962476D02*
X137120380Y-73962476D01*
X137739428Y-73867238D02*
X138120380Y-73581523D01*
X137453714Y-73581523D02*
X137834666Y-73962476D01*
X138120380Y-73010095D02*
X138072761Y-73105333D01*
X138025142Y-73152952D01*
X137929904Y-73200571D01*
X137644190Y-73200571D01*
X137548952Y-73152952D01*
X137501333Y-73105333D01*
X137453714Y-73010095D01*
X137453714Y-72867238D01*
X137501333Y-72772000D01*
X137548952Y-72724380D01*
X137644190Y-72676761D01*
X137929904Y-72676761D01*
X138025142Y-72724380D01*
X138072761Y-72772000D01*
X138120380Y-72867238D01*
X138120380Y-73010095D01*
X137453714Y-71819619D02*
X138120380Y-71819619D01*
X137453714Y-72248190D02*
X137977523Y-72248190D01*
X138072761Y-72200571D01*
X138120380Y-72105333D01*
X138120380Y-71962476D01*
X138072761Y-71867238D01*
X138025142Y-71819619D01*
X137453714Y-71486285D02*
X137453714Y-71105333D01*
X137120380Y-71343428D02*
X137977523Y-71343428D01*
X138072761Y-71295809D01*
X138120380Y-71200571D01*
X138120380Y-71105333D01*
D10*
X126832142Y-96560377D02*
X126939285Y-96596091D01*
X126975000Y-96631806D01*
X127010714Y-96703234D01*
X127010714Y-96810377D01*
X126975000Y-96881806D01*
X126939285Y-96917520D01*
X126867857Y-96953234D01*
X126582142Y-96953234D01*
X126582142Y-96203234D01*
X126832142Y-96203234D01*
X126903571Y-96238949D01*
X126939285Y-96274663D01*
X126975000Y-96346091D01*
X126975000Y-96417520D01*
X126939285Y-96488949D01*
X126903571Y-96524663D01*
X126832142Y-96560377D01*
X126582142Y-96560377D01*
X127439285Y-96953234D02*
X127367857Y-96917520D01*
X127332142Y-96846091D01*
X127332142Y-96203234D01*
X128046428Y-96953234D02*
X128046428Y-96560377D01*
X128010714Y-96488949D01*
X127939285Y-96453234D01*
X127796428Y-96453234D01*
X127725000Y-96488949D01*
X128046428Y-96917520D02*
X127975000Y-96953234D01*
X127796428Y-96953234D01*
X127725000Y-96917520D01*
X127689285Y-96846091D01*
X127689285Y-96774663D01*
X127725000Y-96703234D01*
X127796428Y-96667520D01*
X127975000Y-96667520D01*
X128046428Y-96631806D01*
X128725000Y-96917520D02*
X128653571Y-96953234D01*
X128510714Y-96953234D01*
X128439285Y-96917520D01*
X128403571Y-96881806D01*
X128367857Y-96810377D01*
X128367857Y-96596091D01*
X128403571Y-96524663D01*
X128439285Y-96488949D01*
X128510714Y-96453234D01*
X128653571Y-96453234D01*
X128725000Y-96488949D01*
X129046428Y-96953234D02*
X129046428Y-96203234D01*
X129117857Y-96667520D02*
X129332142Y-96953234D01*
X129332142Y-96453234D02*
X129046428Y-96738949D01*
X141642142Y-82381285D02*
X141392142Y-82024142D01*
X141213571Y-82381285D02*
X141213571Y-81631285D01*
X141499285Y-81631285D01*
X141570714Y-81667000D01*
X141606428Y-81702714D01*
X141642142Y-81774142D01*
X141642142Y-81881285D01*
X141606428Y-81952714D01*
X141570714Y-81988428D01*
X141499285Y-82024142D01*
X141213571Y-82024142D01*
X141892142Y-81631285D02*
X142392142Y-82381285D01*
X142392142Y-81631285D02*
X141892142Y-82381285D01*
X142677857Y-82381285D02*
X142677857Y-81631285D01*
X142856428Y-81631285D01*
X142963571Y-81667000D01*
X143035000Y-81738428D01*
X143070714Y-81809857D01*
X143106428Y-81952714D01*
X143106428Y-82059857D01*
X143070714Y-82202714D01*
X143035000Y-82274142D01*
X142963571Y-82345571D01*
X142856428Y-82381285D01*
X142677857Y-82381285D01*
X146051428Y-96238949D02*
X145980000Y-96203234D01*
X145872857Y-96203234D01*
X145765714Y-96238949D01*
X145694285Y-96310377D01*
X145658571Y-96381806D01*
X145622857Y-96524663D01*
X145622857Y-96631806D01*
X145658571Y-96774663D01*
X145694285Y-96846091D01*
X145765714Y-96917520D01*
X145872857Y-96953234D01*
X145944285Y-96953234D01*
X146051428Y-96917520D01*
X146087142Y-96881806D01*
X146087142Y-96631806D01*
X145944285Y-96631806D01*
X146408571Y-96953234D02*
X146408571Y-96453234D01*
X146408571Y-96596091D02*
X146444285Y-96524663D01*
X146480000Y-96488949D01*
X146551428Y-96453234D01*
X146622857Y-96453234D01*
X147158571Y-96917520D02*
X147087142Y-96953234D01*
X146944285Y-96953234D01*
X146872857Y-96917520D01*
X146837142Y-96846091D01*
X146837142Y-96560377D01*
X146872857Y-96488949D01*
X146944285Y-96453234D01*
X147087142Y-96453234D01*
X147158571Y-96488949D01*
X147194285Y-96560377D01*
X147194285Y-96631806D01*
X146837142Y-96703234D01*
X147801428Y-96917520D02*
X147730000Y-96953234D01*
X147587142Y-96953234D01*
X147515714Y-96917520D01*
X147480000Y-96846091D01*
X147480000Y-96560377D01*
X147515714Y-96488949D01*
X147587142Y-96453234D01*
X147730000Y-96453234D01*
X147801428Y-96488949D01*
X147837142Y-96560377D01*
X147837142Y-96631806D01*
X147480000Y-96703234D01*
X148158571Y-96453234D02*
X148158571Y-96953234D01*
X148158571Y-96524663D02*
X148194285Y-96488949D01*
X148265714Y-96453234D01*
X148372857Y-96453234D01*
X148444285Y-96488949D01*
X148480000Y-96560377D01*
X148480000Y-96953234D01*
D11*
X153314565Y-113396380D02*
X153439565Y-112396380D01*
X153885994Y-113396380D01*
X154010994Y-112396380D01*
X154350279Y-113110666D02*
X154826470Y-113110666D01*
X154219327Y-113396380D02*
X154677660Y-112396380D01*
X154885994Y-113396380D01*
X155618136Y-112872571D02*
X155755041Y-112920190D01*
X155796708Y-112967809D01*
X155832422Y-113063047D01*
X155814565Y-113205904D01*
X155755041Y-113301142D01*
X155701470Y-113348761D01*
X155600279Y-113396380D01*
X155219327Y-113396380D01*
X155344327Y-112396380D01*
X155677660Y-112396380D01*
X155766946Y-112444000D01*
X155808613Y-112491619D01*
X155844327Y-112586857D01*
X155832422Y-112682095D01*
X155772898Y-112777333D01*
X155719327Y-112824952D01*
X155618136Y-112872571D01*
X155284803Y-112872571D01*
X156344327Y-112396380D02*
X156243136Y-113205904D01*
X156278851Y-113301142D01*
X156320517Y-113348761D01*
X156409803Y-113396380D01*
X156600279Y-113396380D01*
X156701470Y-113348761D01*
X156755041Y-113301142D01*
X156814565Y-113205904D01*
X156915755Y-112396380D01*
X158427660Y-112872571D02*
X158094327Y-112872571D01*
X158028851Y-113396380D02*
X158153851Y-112396380D01*
X158630041Y-112396380D01*
X158868136Y-112396380D02*
X159439565Y-112396380D01*
X159028851Y-113396380D02*
X159153851Y-112396380D01*
X159647898Y-113396380D02*
X159772898Y-112396380D01*
X160010994Y-112396380D01*
X160147898Y-112444000D01*
X160231232Y-112539238D01*
X160266946Y-112634476D01*
X160290755Y-112824952D01*
X160272898Y-112967809D01*
X160201470Y-113158285D01*
X160141946Y-113253523D01*
X160034803Y-113348761D01*
X159885994Y-113396380D01*
X159647898Y-113396380D01*
X160647898Y-113396380D02*
X160772898Y-112396380D01*
X161844327Y-113348761D02*
X161981232Y-113396380D01*
X162219327Y-113396380D01*
X162320517Y-113348761D01*
X162374089Y-113301142D01*
X162433613Y-113205904D01*
X162445517Y-113110666D01*
X162409803Y-113015428D01*
X162368136Y-112967809D01*
X162278851Y-112920190D01*
X162094327Y-112872571D01*
X162005041Y-112824952D01*
X161963375Y-112777333D01*
X161927660Y-112682095D01*
X161939565Y-112586857D01*
X161999089Y-112491619D01*
X162052660Y-112444000D01*
X162153851Y-112396380D01*
X162391946Y-112396380D01*
X162528851Y-112444000D01*
X163225279Y-113348761D02*
X163124089Y-113396380D01*
X162933613Y-113396380D01*
X162844327Y-113348761D01*
X162808613Y-113253523D01*
X162856232Y-112872571D01*
X162915755Y-112777333D01*
X163016946Y-112729714D01*
X163207422Y-112729714D01*
X163296708Y-112777333D01*
X163332422Y-112872571D01*
X163320517Y-112967809D01*
X162832422Y-113063047D01*
X163695517Y-113396380D02*
X163778851Y-112729714D01*
X163755041Y-112920190D02*
X163814565Y-112824952D01*
X163868136Y-112777333D01*
X163969327Y-112729714D01*
X164064565Y-112729714D01*
X164314565Y-113396380D02*
X164397898Y-112729714D01*
X164439565Y-112396380D02*
X164385994Y-112444000D01*
X164427660Y-112491619D01*
X164481232Y-112444000D01*
X164439565Y-112396380D01*
X164427660Y-112491619D01*
X165219327Y-113396380D02*
X165284803Y-112872571D01*
X165249089Y-112777333D01*
X165159803Y-112729714D01*
X164969327Y-112729714D01*
X164868136Y-112777333D01*
X165225279Y-113348761D02*
X165124089Y-113396380D01*
X164885994Y-113396380D01*
X164796708Y-113348761D01*
X164760994Y-113253523D01*
X164772898Y-113158285D01*
X164832422Y-113063047D01*
X164933613Y-113015428D01*
X165171708Y-113015428D01*
X165272898Y-112967809D01*
X165838375Y-113396380D02*
X165749089Y-113348761D01*
X165713375Y-113253523D01*
X165820517Y-112396380D01*
X166969327Y-113110666D02*
X167445517Y-113110666D01*
X166838375Y-113396380D02*
X167296708Y-112396380D01*
X167505041Y-113396380D01*
X168266946Y-113396380D02*
X168391946Y-112396380D01*
X168272898Y-113348761D02*
X168171708Y-113396380D01*
X167981232Y-113396380D01*
X167891946Y-113348761D01*
X167850279Y-113301142D01*
X167814565Y-113205904D01*
X167850279Y-112920190D01*
X167909803Y-112824952D01*
X167963375Y-112777333D01*
X168064565Y-112729714D01*
X168255041Y-112729714D01*
X168344327Y-112777333D01*
X169171708Y-113396380D02*
X169237184Y-112872571D01*
X169201470Y-112777333D01*
X169112184Y-112729714D01*
X168921708Y-112729714D01*
X168820517Y-112777333D01*
X169177660Y-113348761D02*
X169076470Y-113396380D01*
X168838375Y-113396380D01*
X168749089Y-113348761D01*
X168713375Y-113253523D01*
X168725279Y-113158285D01*
X168784803Y-113063047D01*
X168885994Y-113015428D01*
X169124089Y-113015428D01*
X169225279Y-112967809D01*
X169731232Y-112729714D02*
X169606232Y-113729714D01*
X169725279Y-112777333D02*
X169826470Y-112729714D01*
X170016946Y-112729714D01*
X170106232Y-112777333D01*
X170147898Y-112824952D01*
X170183613Y-112920190D01*
X170147898Y-113205904D01*
X170088375Y-113301142D01*
X170034803Y-113348761D01*
X169933613Y-113396380D01*
X169743136Y-113396380D01*
X169653851Y-113348761D01*
X170493136Y-112729714D02*
X170874089Y-112729714D01*
X170677660Y-112396380D02*
X170570517Y-113253523D01*
X170606232Y-113348761D01*
X170695517Y-113396380D01*
X170790755Y-113396380D01*
X171510994Y-113348761D02*
X171409803Y-113396380D01*
X171219327Y-113396380D01*
X171130041Y-113348761D01*
X171094327Y-113253523D01*
X171141946Y-112872571D01*
X171201470Y-112777333D01*
X171302660Y-112729714D01*
X171493136Y-112729714D01*
X171582422Y-112777333D01*
X171618136Y-112872571D01*
X171606232Y-112967809D01*
X171118136Y-113063047D01*
X171981232Y-113396380D02*
X172064565Y-112729714D01*
X172040755Y-112920190D02*
X172100279Y-112824952D01*
X172153851Y-112777333D01*
X172255041Y-112729714D01*
X172350279Y-112729714D01*
X150457422Y-115006380D02*
X150582422Y-114006380D01*
X151028851Y-115006380D02*
X150671708Y-114434952D01*
X151153851Y-114006380D02*
X150510994Y-114577809D01*
X151457422Y-115006380D02*
X151540755Y-114339714D01*
X151516946Y-114530190D02*
X151576470Y-114434952D01*
X151630041Y-114387333D01*
X151731232Y-114339714D01*
X151826470Y-114339714D01*
X152076470Y-115006380D02*
X152159803Y-114339714D01*
X152201470Y-114006380D02*
X152147898Y-114054000D01*
X152189565Y-114101619D01*
X152243136Y-114054000D01*
X152201470Y-114006380D01*
X152189565Y-114101619D01*
X152510994Y-114958761D02*
X152600279Y-115006380D01*
X152790755Y-115006380D01*
X152891946Y-114958761D01*
X152951470Y-114863523D01*
X152957422Y-114815904D01*
X152921708Y-114720666D01*
X152832422Y-114673047D01*
X152689565Y-114673047D01*
X152600279Y-114625428D01*
X152564565Y-114530190D01*
X152570517Y-114482571D01*
X152630041Y-114387333D01*
X152731232Y-114339714D01*
X152874089Y-114339714D01*
X152963375Y-114387333D01*
X154082422Y-114958761D02*
X154219327Y-115006380D01*
X154457422Y-115006380D01*
X154558613Y-114958761D01*
X154612184Y-114911142D01*
X154671708Y-114815904D01*
X154683613Y-114720666D01*
X154647898Y-114625428D01*
X154606232Y-114577809D01*
X154516946Y-114530190D01*
X154332422Y-114482571D01*
X154243136Y-114434952D01*
X154201470Y-114387333D01*
X154165755Y-114292095D01*
X154177660Y-114196857D01*
X154237184Y-114101619D01*
X154290755Y-114054000D01*
X154391946Y-114006380D01*
X154630041Y-114006380D01*
X154766946Y-114054000D01*
X155463375Y-114958761D02*
X155362184Y-115006380D01*
X155171708Y-115006380D01*
X155082422Y-114958761D01*
X155046708Y-114863523D01*
X155094327Y-114482571D01*
X155153851Y-114387333D01*
X155255041Y-114339714D01*
X155445517Y-114339714D01*
X155534803Y-114387333D01*
X155570517Y-114482571D01*
X155558613Y-114577809D01*
X155070517Y-114673047D01*
X155933613Y-115006380D02*
X156058613Y-114006380D01*
X156076470Y-114625428D02*
X156314565Y-115006380D01*
X156397898Y-114339714D02*
X155969327Y-114720666D01*
X157255041Y-114339714D02*
X157171708Y-115006380D01*
X156826470Y-114339714D02*
X156760994Y-114863523D01*
X156796708Y-114958761D01*
X156885994Y-115006380D01*
X157028851Y-115006380D01*
X157130041Y-114958761D01*
X157183613Y-114911142D01*
X157790755Y-115006380D02*
X157701470Y-114958761D01*
X157665755Y-114863523D01*
X157772898Y-114006380D01*
X158600279Y-115006380D02*
X158665755Y-114482571D01*
X158630041Y-114387333D01*
X158540755Y-114339714D01*
X158350279Y-114339714D01*
X158249089Y-114387333D01*
X158606232Y-114958761D02*
X158505041Y-115006380D01*
X158266946Y-115006380D01*
X158177660Y-114958761D01*
X158141946Y-114863523D01*
X158153851Y-114768285D01*
X158213375Y-114673047D01*
X158314565Y-114625428D01*
X158552660Y-114625428D01*
X158653851Y-114577809D01*
X160076470Y-115387333D02*
X160034803Y-115339714D01*
X159957422Y-115196857D01*
X159921708Y-115101619D01*
X159891946Y-114958761D01*
X159874089Y-114720666D01*
X159897898Y-114530190D01*
X159975279Y-114292095D01*
X160040755Y-114149238D01*
X160100279Y-114054000D01*
X160213375Y-113911142D01*
X160266946Y-113863523D01*
X160505041Y-115006380D02*
X160630041Y-114006380D01*
X160874089Y-114720666D01*
X161296708Y-114006380D01*
X161171708Y-115006380D01*
X161635994Y-114339714D02*
X161790755Y-115006380D01*
X162112184Y-114339714D02*
X161790755Y-115006380D01*
X161665755Y-115244476D01*
X161612184Y-115292095D01*
X161510994Y-115339714D01*
X163052660Y-114054000D02*
X162963375Y-114006380D01*
X162820517Y-114006380D01*
X162671708Y-114054000D01*
X162564565Y-114149238D01*
X162505041Y-114244476D01*
X162433613Y-114434952D01*
X162415755Y-114577809D01*
X162439565Y-114768285D01*
X162475279Y-114863523D01*
X162558613Y-114958761D01*
X162695517Y-115006380D01*
X162790755Y-115006380D01*
X162939565Y-114958761D01*
X162993136Y-114911142D01*
X163034803Y-114577809D01*
X162844327Y-114577809D01*
X163796708Y-114958761D02*
X163695517Y-115006380D01*
X163505041Y-115006380D01*
X163415755Y-114958761D01*
X163380041Y-114863523D01*
X163427660Y-114482571D01*
X163487184Y-114387333D01*
X163588375Y-114339714D01*
X163778851Y-114339714D01*
X163868136Y-114387333D01*
X163903851Y-114482571D01*
X163891946Y-114577809D01*
X163403851Y-114673047D01*
X164653851Y-114958761D02*
X164552660Y-115006380D01*
X164362184Y-115006380D01*
X164272898Y-114958761D01*
X164237184Y-114863523D01*
X164284803Y-114482571D01*
X164344327Y-114387333D01*
X164445517Y-114339714D01*
X164635994Y-114339714D01*
X164725279Y-114387333D01*
X164760994Y-114482571D01*
X164749089Y-114577809D01*
X164260994Y-114673047D01*
X165124089Y-115006380D02*
X165249089Y-114006380D01*
X165266946Y-114625428D02*
X165505041Y-115006380D01*
X165588375Y-114339714D02*
X165159803Y-114720666D01*
X165921708Y-114339714D02*
X166076470Y-115006380D01*
X166397898Y-114339714D02*
X166076470Y-115006380D01*
X165951470Y-115244476D01*
X165897898Y-115292095D01*
X165796708Y-115339714D01*
X166695517Y-115006380D02*
X166820517Y-114006380D01*
X166760994Y-114482571D02*
X167332422Y-114482571D01*
X167266946Y-115006380D02*
X167391946Y-114006380D01*
X167885994Y-115006380D02*
X167796708Y-114958761D01*
X167755041Y-114911142D01*
X167719327Y-114815904D01*
X167755041Y-114530190D01*
X167814565Y-114434952D01*
X167868136Y-114387333D01*
X167969327Y-114339714D01*
X168112184Y-114339714D01*
X168201470Y-114387333D01*
X168243136Y-114434952D01*
X168278851Y-114530190D01*
X168243136Y-114815904D01*
X168183613Y-114911142D01*
X168130041Y-114958761D01*
X168028851Y-115006380D01*
X167885994Y-115006380D01*
X168647898Y-115006380D02*
X168772898Y-114006380D01*
X168725279Y-114387333D02*
X168826470Y-114339714D01*
X169016946Y-114339714D01*
X169106232Y-114387333D01*
X169147898Y-114434952D01*
X169183613Y-114530190D01*
X169147898Y-114815904D01*
X169088375Y-114911142D01*
X169034803Y-114958761D01*
X168933613Y-115006380D01*
X168743136Y-115006380D01*
X168653851Y-114958761D01*
X169552660Y-115006380D02*
X169677660Y-114006380D01*
X169630041Y-114387333D02*
X169731232Y-114339714D01*
X169921708Y-114339714D01*
X170010994Y-114387333D01*
X170052660Y-114434952D01*
X170088375Y-114530190D01*
X170052660Y-114815904D01*
X169993136Y-114911142D01*
X169939565Y-114958761D01*
X169838375Y-115006380D01*
X169647898Y-115006380D01*
X169558613Y-114958761D01*
X170445517Y-114339714D02*
X170600279Y-115006380D01*
X170921708Y-114339714D02*
X170600279Y-115006380D01*
X170475279Y-115244476D01*
X170421708Y-115292095D01*
X170320517Y-115339714D01*
X171231232Y-114911142D02*
X171272898Y-114958761D01*
X171219327Y-115006380D01*
X171177660Y-114958761D01*
X171231232Y-114911142D01*
X171219327Y-115006380D01*
X172130041Y-114958761D02*
X172028851Y-115006380D01*
X171838375Y-115006380D01*
X171749089Y-114958761D01*
X171707422Y-114911142D01*
X171671708Y-114815904D01*
X171707422Y-114530190D01*
X171766946Y-114434952D01*
X171820517Y-114387333D01*
X171921708Y-114339714D01*
X172112184Y-114339714D01*
X172201470Y-114387333D01*
X172695517Y-115006380D02*
X172606232Y-114958761D01*
X172564565Y-114911142D01*
X172528851Y-114815904D01*
X172564565Y-114530190D01*
X172624089Y-114434952D01*
X172677660Y-114387333D01*
X172778851Y-114339714D01*
X172921708Y-114339714D01*
X173010994Y-114387333D01*
X173052660Y-114434952D01*
X173088375Y-114530190D01*
X173052660Y-114815904D01*
X172993136Y-114911142D01*
X172939565Y-114958761D01*
X172838375Y-115006380D01*
X172695517Y-115006380D01*
X173457422Y-115006380D02*
X173540755Y-114339714D01*
X173528851Y-114434952D02*
X173582422Y-114387333D01*
X173683613Y-114339714D01*
X173826470Y-114339714D01*
X173915755Y-114387333D01*
X173951470Y-114482571D01*
X173885994Y-115006380D01*
X173951470Y-114482571D02*
X174010994Y-114387333D01*
X174112184Y-114339714D01*
X174255041Y-114339714D01*
X174344327Y-114387333D01*
X174380041Y-114482571D01*
X174314565Y-115006380D01*
X174647898Y-115387333D02*
X174701470Y-115339714D01*
X174814565Y-115196857D01*
X174874089Y-115101619D01*
X174939565Y-114958761D01*
X175016946Y-114720666D01*
X175040755Y-114530190D01*
X175022898Y-114292095D01*
X174993136Y-114149238D01*
X174957422Y-114054000D01*
X174880041Y-113911142D01*
X174838375Y-113863523D01*
X157249089Y-115616380D02*
X157159803Y-116330666D01*
X157094327Y-116473523D01*
X156987184Y-116568761D01*
X156838375Y-116616380D01*
X156743136Y-116616380D01*
X158028851Y-116616380D02*
X158094327Y-116092571D01*
X158058613Y-115997333D01*
X157969327Y-115949714D01*
X157778851Y-115949714D01*
X157677660Y-115997333D01*
X158034803Y-116568761D02*
X157933613Y-116616380D01*
X157695517Y-116616380D01*
X157606232Y-116568761D01*
X157570517Y-116473523D01*
X157582422Y-116378285D01*
X157641946Y-116283047D01*
X157743136Y-116235428D01*
X157981232Y-116235428D01*
X158082422Y-116187809D01*
X158463375Y-116568761D02*
X158552660Y-116616380D01*
X158743136Y-116616380D01*
X158844327Y-116568761D01*
X158903851Y-116473523D01*
X158909803Y-116425904D01*
X158874089Y-116330666D01*
X158784803Y-116283047D01*
X158641946Y-116283047D01*
X158552660Y-116235428D01*
X158516946Y-116140190D01*
X158522898Y-116092571D01*
X158582422Y-115997333D01*
X158683613Y-115949714D01*
X158826470Y-115949714D01*
X158915755Y-115997333D01*
X159457422Y-116616380D02*
X159368136Y-116568761D01*
X159326470Y-116521142D01*
X159290755Y-116425904D01*
X159326470Y-116140190D01*
X159385994Y-116044952D01*
X159439565Y-115997333D01*
X159540755Y-115949714D01*
X159683613Y-115949714D01*
X159772898Y-115997333D01*
X159814565Y-116044952D01*
X159850279Y-116140190D01*
X159814565Y-116425904D01*
X159755041Y-116521142D01*
X159701470Y-116568761D01*
X159600279Y-116616380D01*
X159457422Y-116616380D01*
X160302660Y-115949714D02*
X160219327Y-116616380D01*
X160290755Y-116044952D02*
X160344327Y-115997333D01*
X160445517Y-115949714D01*
X160588375Y-115949714D01*
X160677660Y-115997333D01*
X160713375Y-116092571D01*
X160647898Y-116616380D01*
X162457422Y-116616380D02*
X162183613Y-116140190D01*
X161885994Y-116616380D02*
X162010994Y-115616380D01*
X162391946Y-115616380D01*
X162481232Y-115664000D01*
X162522898Y-115711619D01*
X162558613Y-115806857D01*
X162540755Y-115949714D01*
X162481232Y-116044952D01*
X162427660Y-116092571D01*
X162326470Y-116140190D01*
X161945517Y-116140190D01*
X162897898Y-116521142D02*
X162939565Y-116568761D01*
X162885994Y-116616380D01*
X162844327Y-116568761D01*
X162897898Y-116521142D01*
X162885994Y-116616380D01*
X164106232Y-115616380D02*
X164677660Y-115616380D01*
X164266946Y-116616380D02*
X164391946Y-115616380D01*
X164885994Y-116616380D02*
X165010994Y-115616380D01*
X165314565Y-116616380D02*
X165380041Y-116092571D01*
X165344327Y-115997333D01*
X165255041Y-115949714D01*
X165112184Y-115949714D01*
X165010994Y-115997333D01*
X164957422Y-116044952D01*
X165933613Y-116616380D02*
X165844327Y-116568761D01*
X165802660Y-116521142D01*
X165766946Y-116425904D01*
X165802660Y-116140190D01*
X165862184Y-116044952D01*
X165915755Y-115997333D01*
X166016946Y-115949714D01*
X166159803Y-115949714D01*
X166249089Y-115997333D01*
X166290755Y-116044952D01*
X166326470Y-116140190D01*
X166290755Y-116425904D01*
X166231232Y-116521142D01*
X166177660Y-116568761D01*
X166076470Y-116616380D01*
X165933613Y-116616380D01*
X166695517Y-116616380D02*
X166778851Y-115949714D01*
X166755041Y-116140190D02*
X166814565Y-116044952D01*
X166868136Y-115997333D01*
X166969327Y-115949714D01*
X167064565Y-115949714D01*
X167397898Y-115949714D02*
X167272898Y-116949714D01*
X167391946Y-115997333D02*
X167493136Y-115949714D01*
X167683613Y-115949714D01*
X167772898Y-115997333D01*
X167814565Y-116044952D01*
X167850279Y-116140190D01*
X167814565Y-116425904D01*
X167755041Y-116521142D01*
X167701470Y-116568761D01*
X167600279Y-116616380D01*
X167409803Y-116616380D01*
X167320517Y-116568761D01*
X168606232Y-116568761D02*
X168505041Y-116616380D01*
X168314565Y-116616380D01*
X168225279Y-116568761D01*
X168189565Y-116473523D01*
X168237184Y-116092571D01*
X168296708Y-115997333D01*
X168397898Y-115949714D01*
X168588375Y-115949714D01*
X168677660Y-115997333D01*
X168713375Y-116092571D01*
X168701470Y-116187809D01*
X168213375Y-116283047D01*
D10*
X149976571Y-94670377D02*
X150226571Y-94670377D01*
X150333714Y-95063234D02*
X149976571Y-95063234D01*
X149976571Y-94313234D01*
X150333714Y-94313234D01*
X150655142Y-94563234D02*
X150655142Y-95063234D01*
X150655142Y-94634663D02*
X150690857Y-94598949D01*
X150762285Y-94563234D01*
X150869428Y-94563234D01*
X150940857Y-94598949D01*
X150976571Y-94670377D01*
X150976571Y-95063234D01*
X151655142Y-95063234D02*
X151655142Y-94670377D01*
X151619428Y-94598949D01*
X151548000Y-94563234D01*
X151405142Y-94563234D01*
X151333714Y-94598949D01*
X151655142Y-95027520D02*
X151583714Y-95063234D01*
X151405142Y-95063234D01*
X151333714Y-95027520D01*
X151298000Y-94956091D01*
X151298000Y-94884663D01*
X151333714Y-94813234D01*
X151405142Y-94777520D01*
X151583714Y-94777520D01*
X151655142Y-94741806D01*
X152012285Y-95063234D02*
X152012285Y-94313234D01*
X152012285Y-94598949D02*
X152083714Y-94563234D01*
X152226571Y-94563234D01*
X152298000Y-94598949D01*
X152333714Y-94634663D01*
X152369428Y-94706091D01*
X152369428Y-94920377D01*
X152333714Y-94991806D01*
X152298000Y-95027520D01*
X152226571Y-95063234D01*
X152083714Y-95063234D01*
X152012285Y-95027520D01*
X152798000Y-95063234D02*
X152726571Y-95027520D01*
X152690857Y-94956091D01*
X152690857Y-94313234D01*
X153369428Y-95027520D02*
X153298000Y-95063234D01*
X153155142Y-95063234D01*
X153083714Y-95027520D01*
X153048000Y-94956091D01*
X153048000Y-94670377D01*
X153083714Y-94598949D01*
X153155142Y-94563234D01*
X153298000Y-94563234D01*
X153369428Y-94598949D01*
X153405142Y-94670377D01*
X153405142Y-94741806D01*
X153048000Y-94813234D01*
X130943000Y-96137571D02*
X130907285Y-96209000D01*
X130907285Y-96316142D01*
X130943000Y-96423285D01*
X131014428Y-96494714D01*
X131085857Y-96530428D01*
X131228714Y-96566142D01*
X131335857Y-96566142D01*
X131478714Y-96530428D01*
X131550142Y-96494714D01*
X131621571Y-96423285D01*
X131657285Y-96316142D01*
X131657285Y-96244714D01*
X131621571Y-96137571D01*
X131585857Y-96101857D01*
X131335857Y-96101857D01*
X131335857Y-96244714D01*
X131657285Y-95780428D02*
X130907285Y-95780428D01*
X131657285Y-95351857D01*
X130907285Y-95351857D01*
X131657285Y-94994714D02*
X130907285Y-94994714D01*
X130907285Y-94816142D01*
X130943000Y-94709000D01*
X131014428Y-94637571D01*
X131085857Y-94601857D01*
X131228714Y-94566142D01*
X131335857Y-94566142D01*
X131478714Y-94601857D01*
X131550142Y-94637571D01*
X131621571Y-94709000D01*
X131657285Y-94816142D01*
X131657285Y-94994714D01*
X132462428Y-91827000D02*
X132391000Y-91791285D01*
X132283857Y-91791285D01*
X132176714Y-91827000D01*
X132105285Y-91898428D01*
X132069571Y-91969857D01*
X132033857Y-92112714D01*
X132033857Y-92219857D01*
X132069571Y-92362714D01*
X132105285Y-92434142D01*
X132176714Y-92505571D01*
X132283857Y-92541285D01*
X132355285Y-92541285D01*
X132462428Y-92505571D01*
X132498142Y-92469857D01*
X132498142Y-92219857D01*
X132355285Y-92219857D01*
X132819571Y-92541285D02*
X132819571Y-91791285D01*
X133248142Y-92541285D01*
X133248142Y-91791285D01*
X133605285Y-92541285D02*
X133605285Y-91791285D01*
X133783857Y-91791285D01*
X133891000Y-91827000D01*
X133962428Y-91898428D01*
X133998142Y-91969857D01*
X134033857Y-92112714D01*
X134033857Y-92219857D01*
X133998142Y-92362714D01*
X133962428Y-92434142D01*
X133891000Y-92505571D01*
X133783857Y-92541285D01*
X133605285Y-92541285D01*
X150369428Y-110829285D02*
X149940857Y-110829285D01*
X150155142Y-110829285D02*
X150155142Y-110079285D01*
X150083714Y-110186428D01*
X150012285Y-110257857D01*
X149940857Y-110293571D01*
X151083714Y-110829285D02*
X150655142Y-110829285D01*
X150869428Y-110829285D02*
X150869428Y-110079285D01*
X150798000Y-110186428D01*
X150726571Y-110257857D01*
X150655142Y-110293571D01*
X151798000Y-110829285D02*
X151369428Y-110829285D01*
X151583714Y-110829285D02*
X151583714Y-110079285D01*
X151512285Y-110186428D01*
X151440857Y-110257857D01*
X151369428Y-110293571D01*
X152119428Y-110757857D02*
X152155142Y-110793571D01*
X152119428Y-110829285D01*
X152083714Y-110793571D01*
X152119428Y-110757857D01*
X152119428Y-110829285D01*
X152583714Y-110400714D02*
X152512285Y-110365000D01*
X152476571Y-110329285D01*
X152440857Y-110257857D01*
X152440857Y-110222142D01*
X152476571Y-110150714D01*
X152512285Y-110115000D01*
X152583714Y-110079285D01*
X152726571Y-110079285D01*
X152798000Y-110115000D01*
X152833714Y-110150714D01*
X152869428Y-110222142D01*
X152869428Y-110257857D01*
X152833714Y-110329285D01*
X152798000Y-110365000D01*
X152726571Y-110400714D01*
X152583714Y-110400714D01*
X152512285Y-110436428D01*
X152476571Y-110472142D01*
X152440857Y-110543571D01*
X152440857Y-110686428D01*
X152476571Y-110757857D01*
X152512285Y-110793571D01*
X152583714Y-110829285D01*
X152726571Y-110829285D01*
X152798000Y-110793571D01*
X152833714Y-110757857D01*
X152869428Y-110686428D01*
X152869428Y-110543571D01*
X152833714Y-110472142D01*
X152798000Y-110436428D01*
X152726571Y-110400714D01*
X153190857Y-110829285D02*
X153190857Y-110079285D01*
X153619428Y-110829285D02*
X153298000Y-110400714D01*
X153619428Y-110079285D02*
X153190857Y-110507857D01*
D11*
%TO.C,J3*%
X129714666Y-68996329D02*
X129714666Y-69710615D01*
X129667047Y-69853472D01*
X129571809Y-69948710D01*
X129428952Y-69996329D01*
X129333714Y-69996329D01*
X130095619Y-68996329D02*
X130714666Y-68996329D01*
X130381333Y-69377282D01*
X130524190Y-69377282D01*
X130619428Y-69424901D01*
X130667047Y-69472520D01*
X130714666Y-69567758D01*
X130714666Y-69805853D01*
X130667047Y-69901091D01*
X130619428Y-69948710D01*
X130524190Y-69996329D01*
X130238476Y-69996329D01*
X130143238Y-69948710D01*
X130095619Y-69901091D01*
%TO.C,JP2*%
X150677666Y-82492329D02*
X150677666Y-83206615D01*
X150630047Y-83349472D01*
X150534809Y-83444710D01*
X150391952Y-83492329D01*
X150296714Y-83492329D01*
X151153857Y-83492329D02*
X151153857Y-82492329D01*
X151534809Y-82492329D01*
X151630047Y-82539949D01*
X151677666Y-82587568D01*
X151725285Y-82682806D01*
X151725285Y-82825663D01*
X151677666Y-82920901D01*
X151630047Y-82968520D01*
X151534809Y-83016139D01*
X151153857Y-83016139D01*
X152106238Y-82587568D02*
X152153857Y-82539949D01*
X152249095Y-82492329D01*
X152487190Y-82492329D01*
X152582428Y-82539949D01*
X152630047Y-82587568D01*
X152677666Y-82682806D01*
X152677666Y-82778044D01*
X152630047Y-82920901D01*
X152058619Y-83492329D01*
X152677666Y-83492329D01*
X148391571Y-93834425D02*
X148391571Y-94167758D01*
X148915380Y-94167758D02*
X147915380Y-94167758D01*
X147915380Y-93691568D01*
X148915380Y-93167758D02*
X148867761Y-93262996D01*
X148772523Y-93310615D01*
X147915380Y-93310615D01*
X148915380Y-92643949D02*
X148867761Y-92739187D01*
X148820142Y-92786806D01*
X148724904Y-92834425D01*
X148439190Y-92834425D01*
X148343952Y-92786806D01*
X148296333Y-92739187D01*
X148248714Y-92643949D01*
X148248714Y-92501091D01*
X148296333Y-92405853D01*
X148343952Y-92358234D01*
X148439190Y-92310615D01*
X148724904Y-92310615D01*
X148820142Y-92358234D01*
X148867761Y-92405853D01*
X148915380Y-92501091D01*
X148915380Y-92643949D01*
X148248714Y-91977282D02*
X148915380Y-91786806D01*
X148439190Y-91596329D01*
X148915380Y-91405853D01*
X148248714Y-91215377D01*
X148820142Y-89501091D02*
X148867761Y-89548710D01*
X148915380Y-89691568D01*
X148915380Y-89786806D01*
X148867761Y-89929663D01*
X148772523Y-90024901D01*
X148677285Y-90072520D01*
X148486809Y-90120139D01*
X148343952Y-90120139D01*
X148153476Y-90072520D01*
X148058238Y-90024901D01*
X147963000Y-89929663D01*
X147915380Y-89786806D01*
X147915380Y-89691568D01*
X147963000Y-89548710D01*
X148010619Y-89501091D01*
X148915380Y-88929663D02*
X148867761Y-89024901D01*
X148820142Y-89072520D01*
X148724904Y-89120139D01*
X148439190Y-89120139D01*
X148343952Y-89072520D01*
X148296333Y-89024901D01*
X148248714Y-88929663D01*
X148248714Y-88786806D01*
X148296333Y-88691568D01*
X148343952Y-88643949D01*
X148439190Y-88596329D01*
X148724904Y-88596329D01*
X148820142Y-88643949D01*
X148867761Y-88691568D01*
X148915380Y-88786806D01*
X148915380Y-88929663D01*
X148248714Y-88167758D02*
X148915380Y-88167758D01*
X148343952Y-88167758D02*
X148296333Y-88120139D01*
X148248714Y-88024901D01*
X148248714Y-87882044D01*
X148296333Y-87786806D01*
X148391571Y-87739187D01*
X148915380Y-87739187D01*
X148248714Y-87405853D02*
X148248714Y-87024901D01*
X147915380Y-87262996D02*
X148772523Y-87262996D01*
X148867761Y-87215377D01*
X148915380Y-87120139D01*
X148915380Y-87024901D01*
X148915380Y-86691568D02*
X148248714Y-86691568D01*
X148439190Y-86691568D02*
X148343952Y-86643949D01*
X148296333Y-86596329D01*
X148248714Y-86501091D01*
X148248714Y-86405853D01*
X148915380Y-85929663D02*
X148867761Y-86024901D01*
X148820142Y-86072520D01*
X148724904Y-86120139D01*
X148439190Y-86120139D01*
X148343952Y-86072520D01*
X148296333Y-86024901D01*
X148248714Y-85929663D01*
X148248714Y-85786806D01*
X148296333Y-85691568D01*
X148343952Y-85643949D01*
X148439190Y-85596329D01*
X148724904Y-85596329D01*
X148820142Y-85643949D01*
X148867761Y-85691568D01*
X148915380Y-85786806D01*
X148915380Y-85929663D01*
X148915380Y-85024901D02*
X148867761Y-85120139D01*
X148772523Y-85167758D01*
X147915380Y-85167758D01*
%TO.C,U1*%
X162542044Y-56336329D02*
X162542044Y-57145853D01*
X162589663Y-57241091D01*
X162637282Y-57288710D01*
X162732520Y-57336329D01*
X162922996Y-57336329D01*
X163018234Y-57288710D01*
X163065853Y-57241091D01*
X163113472Y-57145853D01*
X163113472Y-56336329D01*
X164113472Y-57336329D02*
X163542044Y-57336329D01*
X163827758Y-57336329D02*
X163827758Y-56336329D01*
X163732520Y-56479187D01*
X163637282Y-56574425D01*
X163542044Y-56622044D01*
X160613472Y-109256329D02*
X161184901Y-109256329D01*
X160899187Y-110256329D02*
X160899187Y-109256329D01*
X162089663Y-110256329D02*
X161756329Y-109780139D01*
X161518234Y-110256329D02*
X161518234Y-109256329D01*
X161899187Y-109256329D01*
X161994425Y-109303949D01*
X162042044Y-109351568D01*
X162089663Y-109446806D01*
X162089663Y-109589663D01*
X162042044Y-109684901D01*
X161994425Y-109732520D01*
X161899187Y-109780139D01*
X161518234Y-109780139D01*
X163042044Y-110256329D02*
X162470615Y-110256329D01*
X162756329Y-110256329D02*
X162756329Y-109256329D01*
X162661091Y-109399187D01*
X162565853Y-109494425D01*
X162470615Y-109542044D01*
X163613472Y-109684901D02*
X163518234Y-109637282D01*
X163470615Y-109589663D01*
X163422996Y-109494425D01*
X163422996Y-109446806D01*
X163470615Y-109351568D01*
X163518234Y-109303949D01*
X163613472Y-109256329D01*
X163803949Y-109256329D01*
X163899187Y-109303949D01*
X163946806Y-109351568D01*
X163994425Y-109446806D01*
X163994425Y-109494425D01*
X163946806Y-109589663D01*
X163899187Y-109637282D01*
X163803949Y-109684901D01*
X163613472Y-109684901D01*
X163518234Y-109732520D01*
X163470615Y-109780139D01*
X163422996Y-109875377D01*
X163422996Y-110065853D01*
X163470615Y-110161091D01*
X163518234Y-110208710D01*
X163613472Y-110256329D01*
X163803949Y-110256329D01*
X163899187Y-110208710D01*
X163946806Y-110161091D01*
X163994425Y-110065853D01*
X163994425Y-109875377D01*
X163946806Y-109780139D01*
X163899187Y-109732520D01*
X163803949Y-109684901D01*
X164851568Y-109256329D02*
X164661091Y-109256329D01*
X164565853Y-109303949D01*
X164518234Y-109351568D01*
X164422996Y-109494425D01*
X164375377Y-109684901D01*
X164375377Y-110065853D01*
X164422996Y-110161091D01*
X164470615Y-110208710D01*
X164565853Y-110256329D01*
X164756329Y-110256329D01*
X164851568Y-110208710D01*
X164899187Y-110161091D01*
X164946806Y-110065853D01*
X164946806Y-109827758D01*
X164899187Y-109732520D01*
X164851568Y-109684901D01*
X164756329Y-109637282D01*
X164565853Y-109637282D01*
X164470615Y-109684901D01*
X164422996Y-109732520D01*
X164375377Y-109827758D01*
X165280139Y-109256329D02*
X165899187Y-109256329D01*
X165565853Y-109637282D01*
X165708710Y-109637282D01*
X165803949Y-109684901D01*
X165851568Y-109732520D01*
X165899187Y-109827758D01*
X165899187Y-110065853D01*
X165851568Y-110161091D01*
X165803949Y-110208710D01*
X165708710Y-110256329D01*
X165422996Y-110256329D01*
X165327758Y-110208710D01*
X165280139Y-110161091D01*
%TO.C,JP1*%
X150677666Y-97496380D02*
X150677666Y-98210666D01*
X150630047Y-98353523D01*
X150534809Y-98448761D01*
X150391952Y-98496380D01*
X150296714Y-98496380D01*
X151153857Y-98496380D02*
X151153857Y-97496380D01*
X151534809Y-97496380D01*
X151630047Y-97544000D01*
X151677666Y-97591619D01*
X151725285Y-97686857D01*
X151725285Y-97829714D01*
X151677666Y-97924952D01*
X151630047Y-97972571D01*
X151534809Y-98020190D01*
X151153857Y-98020190D01*
X152677666Y-98496380D02*
X152106238Y-98496380D01*
X152391952Y-98496380D02*
X152391952Y-97496380D01*
X152296714Y-97639238D01*
X152201476Y-97734476D01*
X152106238Y-97782095D01*
X149074142Y-108812520D02*
X149121761Y-108860139D01*
X149169380Y-109002996D01*
X149169380Y-109098234D01*
X149121761Y-109241091D01*
X149026523Y-109336329D01*
X148931285Y-109383949D01*
X148740809Y-109431568D01*
X148597952Y-109431568D01*
X148407476Y-109383949D01*
X148312238Y-109336329D01*
X148217000Y-109241091D01*
X148169380Y-109098234D01*
X148169380Y-109002996D01*
X148217000Y-108860139D01*
X148264619Y-108812520D01*
X149169380Y-108241091D02*
X149121761Y-108336329D01*
X149026523Y-108383949D01*
X148169380Y-108383949D01*
X149169380Y-107717282D02*
X149121761Y-107812520D01*
X149074142Y-107860139D01*
X148978904Y-107907758D01*
X148693190Y-107907758D01*
X148597952Y-107860139D01*
X148550333Y-107812520D01*
X148502714Y-107717282D01*
X148502714Y-107574425D01*
X148550333Y-107479187D01*
X148597952Y-107431568D01*
X148693190Y-107383949D01*
X148978904Y-107383949D01*
X149074142Y-107431568D01*
X149121761Y-107479187D01*
X149169380Y-107574425D01*
X149169380Y-107717282D01*
X149121761Y-106526806D02*
X149169380Y-106622044D01*
X149169380Y-106812520D01*
X149121761Y-106907758D01*
X149074142Y-106955377D01*
X148978904Y-107002996D01*
X148693190Y-107002996D01*
X148597952Y-106955377D01*
X148550333Y-106907758D01*
X148502714Y-106812520D01*
X148502714Y-106622044D01*
X148550333Y-106526806D01*
X149169380Y-106098234D02*
X148169380Y-106098234D01*
X148788428Y-106002996D02*
X149169380Y-105717282D01*
X148502714Y-105717282D02*
X148883666Y-106098234D01*
X149121761Y-104574425D02*
X149169380Y-104431568D01*
X149169380Y-104193472D01*
X149121761Y-104098234D01*
X149074142Y-104050615D01*
X148978904Y-104002996D01*
X148883666Y-104002996D01*
X148788428Y-104050615D01*
X148740809Y-104098234D01*
X148693190Y-104193472D01*
X148645571Y-104383949D01*
X148597952Y-104479187D01*
X148550333Y-104526806D01*
X148455095Y-104574425D01*
X148359857Y-104574425D01*
X148264619Y-104526806D01*
X148217000Y-104479187D01*
X148169380Y-104383949D01*
X148169380Y-104145853D01*
X148217000Y-104002996D01*
X149121761Y-103193472D02*
X149169380Y-103288710D01*
X149169380Y-103479187D01*
X149121761Y-103574425D01*
X149026523Y-103622044D01*
X148645571Y-103622044D01*
X148550333Y-103574425D01*
X148502714Y-103479187D01*
X148502714Y-103288710D01*
X148550333Y-103193472D01*
X148645571Y-103145853D01*
X148740809Y-103145853D01*
X148836047Y-103622044D01*
X149169380Y-102574425D02*
X149121761Y-102669663D01*
X149026523Y-102717282D01*
X148169380Y-102717282D01*
X149121761Y-101812520D02*
X149169380Y-101907758D01*
X149169380Y-102098234D01*
X149121761Y-102193472D01*
X149026523Y-102241091D01*
X148645571Y-102241091D01*
X148550333Y-102193472D01*
X148502714Y-102098234D01*
X148502714Y-101907758D01*
X148550333Y-101812520D01*
X148645571Y-101764901D01*
X148740809Y-101764901D01*
X148836047Y-102241091D01*
X149121761Y-100907758D02*
X149169380Y-101002996D01*
X149169380Y-101193472D01*
X149121761Y-101288710D01*
X149074142Y-101336329D01*
X148978904Y-101383949D01*
X148693190Y-101383949D01*
X148597952Y-101336329D01*
X148550333Y-101288710D01*
X148502714Y-101193472D01*
X148502714Y-101002996D01*
X148550333Y-100907758D01*
X148502714Y-100622044D02*
X148502714Y-100241091D01*
X148169380Y-100479187D02*
X149026523Y-100479187D01*
X149121761Y-100431568D01*
X149169380Y-100336329D01*
X149169380Y-100241091D01*
%TO.C,J1*%
X160430615Y-61156329D02*
X160430615Y-61870615D01*
X160382996Y-62013472D01*
X160287758Y-62108710D01*
X160144901Y-62156329D01*
X160049663Y-62156329D01*
X161430615Y-62156329D02*
X160859187Y-62156329D01*
X161144901Y-62156329D02*
X161144901Y-61156329D01*
X161049663Y-61299187D01*
X160954425Y-61394425D01*
X160859187Y-61442044D01*
%TO.C,J2*%
X127806431Y-99393333D02*
X128520717Y-99393333D01*
X128663574Y-99440952D01*
X128758812Y-99536190D01*
X128806431Y-99679047D01*
X128806431Y-99774285D01*
X127901670Y-98964761D02*
X127854051Y-98917142D01*
X127806431Y-98821904D01*
X127806431Y-98583809D01*
X127854051Y-98488571D01*
X127901670Y-98440952D01*
X127996908Y-98393333D01*
X128092146Y-98393333D01*
X128235003Y-98440952D01*
X128806431Y-99012380D01*
X128806431Y-98393333D01*
%TO.C,X1*%
X133675857Y-115426329D02*
X133104428Y-115426329D01*
X133390142Y-115426329D02*
X133390142Y-114426329D01*
X133294904Y-114569187D01*
X133199666Y-114664425D01*
X133104428Y-114712044D01*
X134104428Y-115331091D02*
X134152047Y-115378710D01*
X134104428Y-115426329D01*
X134056809Y-115378710D01*
X134104428Y-115331091D01*
X134104428Y-115426329D01*
X134723476Y-114854901D02*
X134628238Y-114807282D01*
X134580619Y-114759663D01*
X134533000Y-114664425D01*
X134533000Y-114616806D01*
X134580619Y-114521568D01*
X134628238Y-114473949D01*
X134723476Y-114426329D01*
X134913952Y-114426329D01*
X135009190Y-114473949D01*
X135056809Y-114521568D01*
X135104428Y-114616806D01*
X135104428Y-114664425D01*
X135056809Y-114759663D01*
X135009190Y-114807282D01*
X134913952Y-114854901D01*
X134723476Y-114854901D01*
X134628238Y-114902520D01*
X134580619Y-114950139D01*
X134533000Y-115045377D01*
X134533000Y-115235853D01*
X134580619Y-115331091D01*
X134628238Y-115378710D01*
X134723476Y-115426329D01*
X134913952Y-115426329D01*
X135009190Y-115378710D01*
X135056809Y-115331091D01*
X135104428Y-115235853D01*
X135104428Y-115045377D01*
X135056809Y-114950139D01*
X135009190Y-114902520D01*
X134913952Y-114854901D01*
X135961571Y-114759663D02*
X135961571Y-115426329D01*
X135723476Y-114378710D02*
X135485380Y-115092996D01*
X136104428Y-115092996D01*
X136390142Y-114426329D02*
X137009190Y-114426329D01*
X136675857Y-114807282D01*
X136818714Y-114807282D01*
X136913952Y-114854901D01*
X136961571Y-114902520D01*
X137009190Y-114997758D01*
X137009190Y-115235853D01*
X136961571Y-115331091D01*
X136913952Y-115378710D01*
X136818714Y-115426329D01*
X136533000Y-115426329D01*
X136437761Y-115378710D01*
X136390142Y-115331091D01*
X137390142Y-114521568D02*
X137437761Y-114473949D01*
X137533000Y-114426329D01*
X137771095Y-114426329D01*
X137866333Y-114473949D01*
X137913952Y-114521568D01*
X137961571Y-114616806D01*
X137961571Y-114712044D01*
X137913952Y-114854901D01*
X137342523Y-115426329D01*
X137961571Y-115426329D01*
X138390142Y-115426329D02*
X138390142Y-114426329D01*
X138723476Y-115140615D01*
X139056809Y-114426329D01*
X139056809Y-115426329D01*
X139533000Y-115426329D02*
X139533000Y-114426329D01*
X139533000Y-114902520D02*
X140104428Y-114902520D01*
X140104428Y-115426329D02*
X140104428Y-114426329D01*
X140485380Y-114759663D02*
X141009190Y-114759663D01*
X140485380Y-115426329D01*
X141009190Y-115426329D01*
%TO.C,J4*%
X144954666Y-68986329D02*
X144954666Y-69700615D01*
X144907047Y-69843472D01*
X144811809Y-69938710D01*
X144668952Y-69986329D01*
X144573714Y-69986329D01*
X145859428Y-69319663D02*
X145859428Y-69986329D01*
X145621333Y-68938710D02*
X145383238Y-69652996D01*
X146002285Y-69652996D01*
D12*
%TO.C,J3*%
X128718000Y-93523949D02*
X131378000Y-93523949D01*
X128718000Y-70543949D02*
X130048000Y-70543949D01*
X128718000Y-71873949D02*
X128718000Y-70543949D01*
X128718000Y-73143949D02*
X128718000Y-93523949D01*
X128718000Y-73143949D02*
X131378000Y-73143949D01*
X131378000Y-73143949D02*
X131378000Y-93523949D01*
%TO.C,JP2*%
X152841000Y-93513949D02*
X151511000Y-93513949D01*
X152841000Y-90913949D02*
X152841000Y-85773949D01*
X152841000Y-90913949D02*
X150181000Y-90913949D01*
X150181000Y-90913949D02*
X150181000Y-85773949D01*
X152841000Y-85773949D02*
X150181000Y-85773949D01*
X152841000Y-92183949D02*
X152841000Y-93513949D01*
%TO.C,U1*%
X172253949Y-108863949D02*
X172253949Y-57823949D01*
X154353949Y-108863949D02*
X172253949Y-108863949D01*
X172253949Y-57823949D02*
X154353949Y-57823949D01*
X169763949Y-108803949D02*
X169763949Y-57883949D01*
X162303949Y-57883949D02*
X156843949Y-57883949D01*
X169763949Y-57883949D02*
X164303949Y-57883949D01*
X156843949Y-57883949D02*
X156843949Y-108803949D01*
X156843949Y-108803949D02*
X169763949Y-108803949D01*
X154353949Y-57823949D02*
X154353949Y-108863949D01*
X162303949Y-57883949D02*
G75*
G03*
X164303949Y-57883949I1000000J0D01*
G01*
%TO.C,JP1*%
X152841000Y-106153949D02*
X152841000Y-101013949D01*
X152841000Y-107423949D02*
X152841000Y-108753949D01*
X152841000Y-101013949D02*
X150181000Y-101013949D01*
X152841000Y-108753949D02*
X151511000Y-108753949D01*
X150181000Y-106153949D02*
X150181000Y-101013949D01*
X152841000Y-106153949D02*
X150181000Y-106153949D01*
%TO.C,J2*%
X131318000Y-99323949D02*
X130048000Y-99323949D01*
X130048000Y-99323949D02*
X130048000Y-98053949D01*
%TO.C,X2*%
X147483000Y-113123949D02*
X147483000Y-101723949D01*
X126583000Y-101723949D02*
X126583000Y-113873949D01*
X146733000Y-100973949D02*
X127333000Y-100973949D01*
X126583000Y-113873949D02*
X146733000Y-113873949D01*
X127333000Y-100973949D02*
G75*
G03*
X126583000Y-101723949I0J-750000D01*
G01*
X146733000Y-113873949D02*
G75*
G03*
X147483000Y-113123949I0J750000D01*
G01*
X147483000Y-101723949D02*
G75*
G03*
X146733000Y-100973949I-750000J0D01*
G01*
%TO.C,J4*%
X143958000Y-93513949D02*
X146618000Y-93513949D01*
X143958000Y-73133949D02*
X146618000Y-73133949D01*
X146618000Y-73133949D02*
X146618000Y-93513949D01*
X143958000Y-70533949D02*
X145288000Y-70533949D01*
X143958000Y-71863949D02*
X143958000Y-70533949D01*
X143958000Y-73133949D02*
X143958000Y-93513949D01*
%TD*%
M02*
