%TF.GenerationSoftware,KiCad,Pcbnew,(6.0.11-0)*%
%TF.CreationDate,2023-02-12T20:14:34-08:00*%
%TF.ProjectId,nabu-ftdi-serial,6e616275-2d66-4746-9469-2d7365726961,1.0*%
%TF.SameCoordinates,Original*%
%TF.FileFunction,Copper,L1,Top*%
%TF.FilePolarity,Positive*%
%FSLAX46Y46*%
G04 Gerber Fmt 4.6, Leading zero omitted, Abs format (unit mm)*
G04 Created by KiCad (PCBNEW (6.0.11-0)) date 2023-02-12 20:14:34*
%MOMM*%
%LPD*%
G01*
G04 APERTURE LIST*
%TA.AperFunction,ComponentPad*%
%ADD10R,1.700000X1.700000*%
%TD*%
%TA.AperFunction,ComponentPad*%
%ADD11O,1.700000X1.700000*%
%TD*%
%TA.AperFunction,ComponentPad*%
%ADD12R,1.600000X1.600000*%
%TD*%
%TA.AperFunction,ComponentPad*%
%ADD13O,1.600000X1.600000*%
%TD*%
%TA.AperFunction,ComponentPad*%
%ADD14C,1.600000*%
%TD*%
%TA.AperFunction,ViaPad*%
%ADD15C,0.800000*%
%TD*%
%TA.AperFunction,Conductor*%
%ADD16C,0.500000*%
%TD*%
%TA.AperFunction,Conductor*%
%ADD17C,0.250000*%
%TD*%
G04 APERTURE END LIST*
D10*
%TO.P,J3,1,Pin_1*%
%TO.N,unconnected-(J3-Pad1)*%
X130048000Y-71873949D03*
D11*
%TO.P,J3,2,Pin_2*%
%TO.N,unconnected-(J3-Pad2)*%
X130048000Y-74413949D03*
%TO.P,J3,3,Pin_3*%
%TO.N,unconnected-(J3-Pad3)*%
X130048000Y-76953949D03*
%TO.P,J3,4,Pin_4*%
%TO.N,/~FTDI_CTS*%
X130048000Y-79493949D03*
%TO.P,J3,5,Pin_5*%
%TO.N,unconnected-(J3-Pad5)*%
X130048000Y-82033949D03*
%TO.P,J3,6,Pin_6*%
%TO.N,unconnected-(J3-Pad6)*%
X130048000Y-84573949D03*
%TO.P,J3,7,Pin_7*%
%TO.N,unconnected-(J3-Pad7)*%
X130048000Y-87113949D03*
%TO.P,J3,8,Pin_8*%
%TO.N,unconnected-(J3-Pad8)*%
X130048000Y-89653949D03*
%TO.P,J3,9,Pin_9*%
%TO.N,/VSS*%
X130048000Y-92193949D03*
%TD*%
D10*
%TO.P,JP2,1,A*%
%TO.N,/DR*%
X151511000Y-92183949D03*
D11*
%TO.P,JP2,2,C*%
%TO.N,/~FTDI_CTS*%
X151511000Y-89643949D03*
%TO.P,JP2,3,B*%
%TO.N,/VSS*%
X151511000Y-87103949D03*
%TD*%
D12*
%TO.P,U1,1,VCC*%
%TO.N,/VCC*%
X155683949Y-59213949D03*
D13*
%TO.P,U1,2*%
%TO.N,unconnected-(U1-Pad2)*%
X155683949Y-61753949D03*
%TO.P,U1,3,VSS*%
%TO.N,/VSS*%
X155683949Y-64293949D03*
%TO.P,U1,4,RRD*%
%TO.N,/RRD*%
X155683949Y-66833949D03*
%TO.P,U1,5,RR8*%
%TO.N,/RR8*%
X155683949Y-69373949D03*
%TO.P,U1,6,RR7*%
%TO.N,/RR7*%
X155683949Y-71913949D03*
%TO.P,U1,7,RR6*%
%TO.N,/RR6*%
X155683949Y-74453949D03*
%TO.P,U1,8,RR5*%
%TO.N,/RR5*%
X155683949Y-76993949D03*
%TO.P,U1,9,RR4*%
%TO.N,/RR4*%
X155683949Y-79533949D03*
%TO.P,U1,10,RR3*%
%TO.N,/RR3*%
X155683949Y-82073949D03*
%TO.P,U1,11,RR2*%
%TO.N,/RR2*%
X155683949Y-84613949D03*
%TO.P,U1,12,RR1*%
%TO.N,/RR1*%
X155683949Y-87153949D03*
%TO.P,U1,13,PE*%
%TO.N,/PE*%
X155683949Y-89693949D03*
%TO.P,U1,14,FE*%
%TO.N,/FE*%
X155683949Y-92233949D03*
%TO.P,U1,15,OE*%
%TO.N,/OE*%
X155683949Y-94773949D03*
%TO.P,U1,16,SFD*%
%TO.N,/SFD*%
X155683949Y-97313949D03*
%TO.P,U1,17,RRC*%
%TO.N,Net-(U1-Pad17)*%
X155683949Y-99853949D03*
%TO.P,U1,18,~DRR*%
%TO.N,/~DRR*%
X155683949Y-102393949D03*
%TO.P,U1,19,DR*%
%TO.N,/DR*%
X155683949Y-104933949D03*
%TO.P,U1,20,RI*%
%TO.N,/FTDI_TX*%
X155683949Y-107473949D03*
%TO.P,U1,21,MR*%
%TO.N,/MR*%
X170923949Y-107473949D03*
%TO.P,U1,22,THRE*%
%TO.N,/THRE*%
X170923949Y-104933949D03*
%TO.P,U1,23,~THRL*%
%TO.N,/~THRL*%
X170923949Y-102393949D03*
%TO.P,U1,24,TRE*%
%TO.N,/TRE*%
X170923949Y-99853949D03*
%TO.P,U1,25,TRO*%
%TO.N,/FTDI_RX*%
X170923949Y-97313949D03*
%TO.P,U1,26,TR1*%
%TO.N,/TR1*%
X170923949Y-94773949D03*
%TO.P,U1,27,TR2*%
%TO.N,/TR2*%
X170923949Y-92233949D03*
%TO.P,U1,28,TR3*%
%TO.N,/TR3*%
X170923949Y-89693949D03*
%TO.P,U1,29,TR4*%
%TO.N,/TR4*%
X170923949Y-87153949D03*
%TO.P,U1,30,TR5*%
%TO.N,/TR5*%
X170923949Y-84613949D03*
%TO.P,U1,31,TR6*%
%TO.N,/TR6*%
X170923949Y-82073949D03*
%TO.P,U1,32,TR7*%
%TO.N,/TR7*%
X170923949Y-79533949D03*
%TO.P,U1,33,TR8*%
%TO.N,/TR8*%
X170923949Y-76993949D03*
%TO.P,U1,34,CRL*%
%TO.N,/CRL*%
X170923949Y-74453949D03*
%TO.P,U1,35,PI*%
%TO.N,/PI*%
X170923949Y-71913949D03*
%TO.P,U1,36,SBS*%
%TO.N,/SBS*%
X170923949Y-69373949D03*
%TO.P,U1,37,WLS1*%
%TO.N,/WLS1*%
X170923949Y-66833949D03*
%TO.P,U1,38,WLS2*%
%TO.N,/WLS2*%
X170923949Y-64293949D03*
%TO.P,U1,39,EPE*%
%TO.N,/EPE*%
X170923949Y-61753949D03*
%TO.P,U1,40,TRC*%
%TO.N,Net-(U1-Pad17)*%
X170923949Y-59213949D03*
%TD*%
D10*
%TO.P,JP1,1,A*%
%TO.N,Net-(J1-Pad17)*%
X151511000Y-107423949D03*
D11*
%TO.P,JP1,2,C*%
%TO.N,Net-(U1-Pad17)*%
X151511000Y-104883949D03*
%TO.P,JP1,3,B*%
%TO.N,Net-(JP1-Pad3)*%
X151511000Y-102343949D03*
%TD*%
D12*
%TO.P,J1,1,VCC*%
%TO.N,/VCC*%
X158223949Y-59163949D03*
D13*
%TO.P,J1,2*%
%TO.N,unconnected-(J1-Pad2)*%
X158223949Y-61703949D03*
%TO.P,J1,3,VSS*%
%TO.N,/VSS*%
X158223949Y-64243949D03*
%TO.P,J1,4,RRD*%
%TO.N,/RRD*%
X158223949Y-66783949D03*
%TO.P,J1,5,RR8*%
%TO.N,/RR8*%
X158223949Y-69323949D03*
%TO.P,J1,6,RR7*%
%TO.N,/RR7*%
X158223949Y-71863949D03*
%TO.P,J1,7,RR6*%
%TO.N,/RR6*%
X158223949Y-74403949D03*
%TO.P,J1,8,RR5*%
%TO.N,/RR5*%
X158223949Y-76943949D03*
%TO.P,J1,9,RR4*%
%TO.N,/RR4*%
X158223949Y-79483949D03*
%TO.P,J1,10,RR3*%
%TO.N,/RR3*%
X158223949Y-82023949D03*
%TO.P,J1,11,RR2*%
%TO.N,/RR2*%
X158223949Y-84563949D03*
%TO.P,J1,12,RR1*%
%TO.N,/RR1*%
X158223949Y-87103949D03*
%TO.P,J1,13,PE*%
%TO.N,/PE*%
X158223949Y-89643949D03*
%TO.P,J1,14,FE*%
%TO.N,/FE*%
X158223949Y-92183949D03*
%TO.P,J1,15,OE*%
%TO.N,/OE*%
X158223949Y-94723949D03*
%TO.P,J1,16,SFD*%
%TO.N,/SFD*%
X158223949Y-97263949D03*
%TO.P,J1,17,RRC*%
%TO.N,Net-(J1-Pad17)*%
X158223949Y-99803949D03*
%TO.P,J1,18,~DRR*%
%TO.N,/~DRR*%
X158223949Y-102343949D03*
%TO.P,J1,19,DR*%
%TO.N,/DR*%
X158223949Y-104883949D03*
%TO.P,J1,20,RI*%
%TO.N,unconnected-(J1-Pad20)*%
X158223949Y-107423949D03*
%TO.P,J1,21,MR*%
%TO.N,/MR*%
X173463949Y-107423949D03*
%TO.P,J1,22,THRE*%
%TO.N,/THRE*%
X173463949Y-104883949D03*
%TO.P,J1,23,~THRL*%
%TO.N,/~THRL*%
X173463949Y-102343949D03*
%TO.P,J1,24,TRE*%
%TO.N,/TRE*%
X173463949Y-99803949D03*
%TO.P,J1,25,TRO*%
%TO.N,unconnected-(J1-Pad25)*%
X173463949Y-97263949D03*
%TO.P,J1,26,TR1*%
%TO.N,/TR1*%
X173463949Y-94723949D03*
%TO.P,J1,27,TR2*%
%TO.N,/TR2*%
X173463949Y-92183949D03*
%TO.P,J1,28,TR3*%
%TO.N,/TR3*%
X173463949Y-89643949D03*
%TO.P,J1,29,TR4*%
%TO.N,/TR4*%
X173463949Y-87103949D03*
%TO.P,J1,30,TR5*%
%TO.N,/TR5*%
X173463949Y-84563949D03*
%TO.P,J1,31,TR6*%
%TO.N,/TR6*%
X173463949Y-82023949D03*
%TO.P,J1,32,TR7*%
%TO.N,/TR7*%
X173463949Y-79483949D03*
%TO.P,J1,33,TR8*%
%TO.N,/TR8*%
X173463949Y-76943949D03*
%TO.P,J1,34,CRL*%
%TO.N,/CRL*%
X173463949Y-74403949D03*
%TO.P,J1,35,PI*%
%TO.N,/PI*%
X173463949Y-71863949D03*
%TO.P,J1,36,SBS*%
%TO.N,/SBS*%
X173463949Y-69323949D03*
%TO.P,J1,37,WLS1*%
%TO.N,/WLS1*%
X173463949Y-66783949D03*
%TO.P,J1,38,WLS2*%
%TO.N,/WLS2*%
X173463949Y-64243949D03*
%TO.P,J1,39,EPE*%
%TO.N,/EPE*%
X173463949Y-61703949D03*
%TO.P,J1,40,TRC*%
%TO.N,unconnected-(J1-Pad40)*%
X173463949Y-59163949D03*
%TD*%
D10*
%TO.P,J2,1,Pin_1*%
%TO.N,/VSS*%
X131318000Y-98053949D03*
D11*
%TO.P,J2,2,Pin_2*%
%TO.N,/~FTDI_CTS*%
X133858000Y-98053949D03*
%TO.P,J2,3,Pin_3*%
%TO.N,unconnected-(J2-Pad3)*%
X136398000Y-98053949D03*
%TO.P,J2,4,Pin_4*%
%TO.N,/FTDI_TX*%
X138938000Y-98053949D03*
%TO.P,J2,5,Pin_5*%
%TO.N,/FTDI_RX*%
X141478000Y-98053949D03*
%TO.P,J2,6,Pin_6*%
%TO.N,unconnected-(J2-Pad6)*%
X144018000Y-98053949D03*
%TD*%
D12*
%TO.P,X1,1,EN*%
%TO.N,/VCC*%
X133223000Y-111233949D03*
D14*
%TO.P,X1,4,GND*%
%TO.N,/VSS*%
X140843000Y-111233949D03*
%TO.P,X1,5,OUT*%
%TO.N,Net-(JP1-Pad3)*%
X140843000Y-103613949D03*
%TO.P,X1,8,Vcc*%
%TO.N,/VCC*%
X133223000Y-103613949D03*
%TD*%
D12*
%TO.P,X2,1,EN*%
%TO.N,/VCC*%
X129413000Y-111233949D03*
D14*
%TO.P,X2,7,GND*%
%TO.N,/VSS*%
X144653000Y-111233949D03*
%TO.P,X2,8,OUT*%
%TO.N,Net-(JP1-Pad3)*%
X144653000Y-103613949D03*
%TO.P,X2,14,Vcc*%
%TO.N,/VCC*%
X129413000Y-103613949D03*
%TD*%
D10*
%TO.P,J4,1,Pin_1*%
%TO.N,unconnected-(J4-Pad1)*%
X145288000Y-71863949D03*
D11*
%TO.P,J4,2,Pin_2*%
%TO.N,unconnected-(J4-Pad2)*%
X145288000Y-74403949D03*
%TO.P,J4,3,Pin_3*%
%TO.N,unconnected-(J4-Pad3)*%
X145288000Y-76943949D03*
%TO.P,J4,4,Pin_4*%
%TO.N,unconnected-(J4-Pad4)*%
X145288000Y-79483949D03*
%TO.P,J4,5,Pin_5*%
%TO.N,/FTDI_RX*%
X145288000Y-82023949D03*
%TO.P,J4,6,Pin_6*%
%TO.N,unconnected-(J4-Pad6)*%
X145288000Y-84563949D03*
%TO.P,J4,7,Pin_7*%
%TO.N,unconnected-(J4-Pad7)*%
X145288000Y-87103949D03*
%TO.P,J4,8,Pin_8*%
%TO.N,unconnected-(J4-Pad8)*%
X145288000Y-89643949D03*
%TO.P,J4,9,Pin_9*%
%TO.N,/FTDI_TX*%
X145288000Y-92183949D03*
%TD*%
D15*
%TO.N,/VCC*%
X157988000Y-110236000D03*
%TO.N,/VSS*%
X148463000Y-94742000D03*
%TO.N,Net-(J1-Pad17)*%
X156845000Y-108839000D03*
%TO.N,/~FTDI_CTS*%
X133858000Y-88519000D03*
%TO.N,/FTDI_TX*%
X146177000Y-106172000D03*
X146138000Y-99226000D03*
%TO.N,/FTDI_RX*%
X168910000Y-83820000D03*
%TO.N,Net-(U1-Pad17)*%
X163830000Y-97790000D03*
%TD*%
D16*
%TO.N,/VCC*%
X133223000Y-111233949D02*
X134473000Y-112483949D01*
X155720051Y-112503949D02*
X157988000Y-110236000D01*
X129413000Y-111233949D02*
X133223000Y-111233949D01*
X134473000Y-112483949D02*
X155700051Y-112483949D01*
X155700051Y-112483949D02*
X155720051Y-112503949D01*
X158173949Y-59213949D02*
X158223949Y-59163949D01*
X129413000Y-103613949D02*
X133223000Y-103613949D01*
X155683949Y-59213949D02*
X158173949Y-59213949D01*
%TO.N,/VSS*%
X132596051Y-94742000D02*
X148463000Y-94742000D01*
X140843000Y-111233949D02*
X144653000Y-111233949D01*
X155683949Y-64293949D02*
X158173949Y-64293949D01*
X130048000Y-92193949D02*
X132596051Y-94742000D01*
X158173949Y-64293949D02*
X158223949Y-64243949D01*
D17*
%TO.N,/RRD*%
X155683949Y-66833949D02*
X158173949Y-66833949D01*
X158173949Y-66833949D02*
X158223949Y-66783949D01*
%TO.N,/RR8*%
X158173949Y-69373949D02*
X158223949Y-69323949D01*
X155683949Y-69373949D02*
X158173949Y-69373949D01*
%TO.N,/RR7*%
X155683949Y-71913949D02*
X158173949Y-71913949D01*
X158173949Y-71913949D02*
X158223949Y-71863949D01*
%TO.N,/RR6*%
X155683949Y-74453949D02*
X158173949Y-74453949D01*
X158173949Y-74453949D02*
X158223949Y-74403949D01*
%TO.N,/RR5*%
X158173949Y-76993949D02*
X158223949Y-76943949D01*
X155683949Y-76993949D02*
X158173949Y-76993949D01*
%TO.N,/RR4*%
X158173949Y-79533949D02*
X158223949Y-79483949D01*
X155683949Y-79533949D02*
X158173949Y-79533949D01*
%TO.N,/RR3*%
X155683949Y-82073949D02*
X158173949Y-82073949D01*
X158173949Y-82073949D02*
X158223949Y-82023949D01*
%TO.N,/RR2*%
X155683949Y-84613949D02*
X158173949Y-84613949D01*
X158173949Y-84613949D02*
X158223949Y-84563949D01*
%TO.N,/RR1*%
X158173949Y-87153949D02*
X158223949Y-87103949D01*
X155683949Y-87153949D02*
X158173949Y-87153949D01*
%TO.N,/PE*%
X158173949Y-89693949D02*
X158223949Y-89643949D01*
X155683949Y-89693949D02*
X158173949Y-89693949D01*
%TO.N,/FE*%
X155683949Y-92233949D02*
X158173949Y-92233949D01*
X158173949Y-92233949D02*
X158223949Y-92183949D01*
%TO.N,/OE*%
X158173949Y-94773949D02*
X158223949Y-94723949D01*
X155683949Y-94773949D02*
X158173949Y-94773949D01*
%TO.N,/SFD*%
X155683949Y-97313949D02*
X158173949Y-97313949D01*
X158173949Y-97313949D02*
X158223949Y-97263949D01*
%TO.N,Net-(J1-Pad17)*%
X152926051Y-108839000D02*
X151511000Y-107423949D01*
X156845000Y-108839000D02*
X152926051Y-108839000D01*
%TO.N,/~DRR*%
X155683949Y-102393949D02*
X158173949Y-102393949D01*
X158173949Y-102393949D02*
X158223949Y-102343949D01*
%TO.N,/DR*%
X158173949Y-104933949D02*
X158223949Y-104883949D01*
X155683949Y-104933949D02*
X158173949Y-104933949D01*
%TO.N,/MR*%
X173413949Y-107473949D02*
X173463949Y-107423949D01*
X170923949Y-107473949D02*
X173413949Y-107473949D01*
%TO.N,/THRE*%
X173413949Y-104933949D02*
X173463949Y-104883949D01*
X170923949Y-104933949D02*
X173413949Y-104933949D01*
%TO.N,/~THRL*%
X170923949Y-102393949D02*
X173413949Y-102393949D01*
X173413949Y-102393949D02*
X173463949Y-102343949D01*
%TO.N,/TRE*%
X170923949Y-99853949D02*
X173413949Y-99853949D01*
X173413949Y-99853949D02*
X173463949Y-99803949D01*
%TO.N,/TR1*%
X170923949Y-94773949D02*
X173413949Y-94773949D01*
X173413949Y-94773949D02*
X173463949Y-94723949D01*
%TO.N,/TR2*%
X170923949Y-92233949D02*
X173413949Y-92233949D01*
X173413949Y-92233949D02*
X173463949Y-92183949D01*
%TO.N,/TR3*%
X173413949Y-89693949D02*
X173463949Y-89643949D01*
X170923949Y-89693949D02*
X173413949Y-89693949D01*
%TO.N,/TR4*%
X170923949Y-87153949D02*
X173413949Y-87153949D01*
X173413949Y-87153949D02*
X173463949Y-87103949D01*
%TO.N,/TR5*%
X173413949Y-84613949D02*
X173463949Y-84563949D01*
X170923949Y-84613949D02*
X173413949Y-84613949D01*
%TO.N,/TR6*%
X170923949Y-82073949D02*
X173413949Y-82073949D01*
X173413949Y-82073949D02*
X173463949Y-82023949D01*
%TO.N,/TR7*%
X173413949Y-79533949D02*
X173463949Y-79483949D01*
X170923949Y-79533949D02*
X173413949Y-79533949D01*
%TO.N,/TR8*%
X173413949Y-76993949D02*
X173463949Y-76943949D01*
X170923949Y-76993949D02*
X173413949Y-76993949D01*
%TO.N,/CRL*%
X170923949Y-74453949D02*
X173413949Y-74453949D01*
X173413949Y-74453949D02*
X173463949Y-74403949D01*
%TO.N,/PI*%
X170923949Y-71913949D02*
X173413949Y-71913949D01*
X173413949Y-71913949D02*
X173463949Y-71863949D01*
%TO.N,/SBS*%
X170923949Y-69373949D02*
X173413949Y-69373949D01*
X173413949Y-69373949D02*
X173463949Y-69323949D01*
%TO.N,/WLS1*%
X173413949Y-66833949D02*
X173463949Y-66783949D01*
X170923949Y-66833949D02*
X173413949Y-66833949D01*
%TO.N,/WLS2*%
X170923949Y-64293949D02*
X173413949Y-64293949D01*
X173413949Y-64293949D02*
X173463949Y-64243949D01*
%TO.N,/EPE*%
X173413949Y-61753949D02*
X173463949Y-61703949D01*
X170923949Y-61753949D02*
X173413949Y-61753949D01*
%TO.N,/~FTDI_CTS*%
X150336000Y-88468949D02*
X133908051Y-88468949D01*
X133908051Y-88468949D02*
X133858000Y-88519000D01*
X151511000Y-89643949D02*
X150336000Y-88468949D01*
%TO.N,/FTDI_TX*%
X154382000Y-106172000D02*
X155683949Y-107473949D01*
X146135051Y-99228949D02*
X146138000Y-99226000D01*
X146177000Y-106172000D02*
X154382000Y-106172000D01*
X140113000Y-99228949D02*
X146135051Y-99228949D01*
X138938000Y-98053949D02*
X140113000Y-99228949D01*
%TO.N,/FTDI_RX*%
X146463000Y-83198949D02*
X168288949Y-83198949D01*
X168288949Y-83198949D02*
X168910000Y-83820000D01*
X145288000Y-82023949D02*
X146463000Y-83198949D01*
%TO.N,Net-(U1-Pad17)*%
X163231051Y-98388949D02*
X157148949Y-98388949D01*
X151511000Y-104026898D02*
X151511000Y-104883949D01*
X157148949Y-98388949D02*
X155683949Y-99853949D01*
X163830000Y-97790000D02*
X163231051Y-98388949D01*
X155683949Y-99853949D02*
X151511000Y-104026898D01*
%TO.N,Net-(JP1-Pad3)*%
X140843000Y-103613949D02*
X144653000Y-103613949D01*
X144653000Y-103613949D02*
X150241000Y-103613949D01*
X150241000Y-103613949D02*
X151511000Y-102343949D01*
%TD*%
M02*
